<svg width="673" height="531" viewBox="0 0 673 531" fill="none" xmlns="http://www.w3.org/2000/svg">
<g id="Group 1">
<g id="Group" opacity="0.1">
<path id="Vector" opacity="0.1" d="M267.42 338.02C273.705 338.02 278.8 331.349 278.8 323.12C278.8 314.891 273.705 308.22 267.42 308.22C261.135 308.22 256.04 314.891 256.04 323.12C256.04 331.349 261.135 338.02 267.42 338.02Z" fill="#3F3D56"/>
<path id="Vector_2" opacity="0.1" d="M276.43 259.37C278.018 256.598 278.839 253.454 278.81 250.26C278.81 242.03 273.71 235.36 267.42 235.36C261.13 235.36 256 242.05 256 250.28C255.971 253.474 256.792 256.618 258.38 259.39C256.82 262.171 256.001 265.306 256.001 268.495C256.001 271.684 256.82 274.819 258.38 277.6C256.82 280.381 256.001 283.516 256.001 286.705C256.001 289.894 256.82 293.029 258.38 295.81C256.79 298.581 255.968 301.726 256 304.92C256 313.14 261.1 319.82 267.38 319.82C273.66 319.82 278.77 313.14 278.77 304.92C278.802 301.726 277.98 298.581 276.39 295.81C277.95 293.029 278.769 289.894 278.769 286.705C278.769 283.516 277.95 280.381 276.39 277.6C277.95 274.819 278.769 271.684 278.769 268.495C278.769 265.306 277.95 262.171 276.39 259.39L276.43 259.37Z" fill="#3F3D56"/>
<path id="Vector_3" opacity="0.1" d="M267.42 246.97C273.705 246.97 278.8 240.299 278.8 232.07C278.8 223.841 273.705 217.17 267.42 217.17C261.135 217.17 256.04 223.841 256.04 232.07C256.04 240.299 261.135 246.97 267.42 246.97Z" fill="#3F3D56"/>
<path id="Vector_4" opacity="0.1" d="M267.42 228.76C273.705 228.76 278.8 222.089 278.8 213.86C278.8 205.631 273.705 198.96 267.42 198.96C261.135 198.96 256.04 205.631 256.04 213.86C256.04 222.089 261.135 228.76 267.42 228.76Z" fill="#3F3D56"/>
<path id="Vector_5" opacity="0.1" d="M224.82 89.23C223.26 87.2532 221.844 85.1679 220.58 82.99L250.48 78.08L218.14 78.32C215.044 71.5659 213.358 64.2511 213.186 56.8231C213.014 49.3951 214.36 42.0102 217.14 35.12L260.53 57.63L220.53 28.21C224.249 21.6725 229.28 15.9749 235.307 11.4755C241.334 6.97612 248.226 3.77213 255.551 2.06497C262.876 0.357803 270.475 0.18438 277.87 1.5556C285.265 2.92682 292.296 5.81303 298.522 10.0328C304.748 14.2526 310.034 19.7147 314.047 26.0757C318.06 32.4368 320.714 39.5592 321.842 46.9954C322.969 54.4316 322.547 62.0206 320.6 69.2855C318.653 76.5504 315.225 83.334 310.53 89.21C312.955 92.2902 315.04 95.6228 316.75 99.15L277.92 119.37L319.31 105.48C322.219 114.072 322.939 123.254 321.404 132.194C319.869 141.134 316.128 149.55 310.52 156.68C316.846 164.722 320.782 174.381 321.877 184.554C322.972 194.728 321.182 205.004 316.712 214.207C312.242 223.411 305.272 231.171 296.6 236.601C287.927 242.03 277.902 244.909 267.67 244.909C257.438 244.909 247.413 242.03 238.74 236.601C230.068 231.171 223.098 223.411 218.628 214.207C214.158 205.004 212.368 194.728 213.463 184.554C214.558 174.381 218.494 164.722 224.82 156.68C217.26 147.07 213.149 135.197 213.149 122.97C213.149 110.743 217.26 98.87 224.82 89.26V89.23Z" fill="#E02F6B"/>
<path id="Vector_6" opacity="0.1" d="M322.19 122.94C322.21 135.171 318.097 147.049 310.52 156.65C316.846 164.692 320.782 174.351 321.877 184.524C322.972 194.698 321.182 204.973 316.712 214.177C312.242 223.381 305.272 231.141 296.6 236.571C287.927 242 277.902 244.879 267.67 244.879C257.438 244.879 247.413 242 238.74 236.571C230.068 231.141 223.098 223.381 218.628 214.177C214.158 204.973 212.368 194.698 213.463 184.524C214.558 174.351 218.494 164.692 224.82 156.65C217.51 147.37 322.19 116.82 322.19 122.94Z" fill="black"/>
</g>
<g id="Group_2" opacity="0.1">
<path id="Vector_7" opacity="0.1" d="M400.28 302.39C404.98 302.39 408.79 297.407 408.79 291.26C408.79 285.113 404.98 280.13 400.28 280.13C395.58 280.13 391.77 285.113 391.77 291.26C391.77 297.407 395.58 302.39 400.28 302.39Z" fill="#3F3D56"/>
<path id="Vector_8" opacity="0.1" d="M407 243.63C408.183 241.561 408.794 239.214 408.77 236.83C408.77 230.68 404.96 225.69 400.27 225.69C395.58 225.69 391.76 230.69 391.76 236.83C391.734 239.215 392.349 241.563 393.54 243.63C392.373 245.708 391.76 248.052 391.76 250.435C391.76 252.818 392.373 255.162 393.54 257.24C392.373 259.318 391.76 261.662 391.76 264.045C391.76 266.428 392.373 268.772 393.54 270.85C392.349 272.917 391.734 275.265 391.76 277.65C391.76 283.8 395.57 288.79 400.27 288.79C404.97 288.79 408.77 283.79 408.77 277.65C408.794 275.266 408.183 272.919 407 270.85C408.158 268.769 408.765 266.427 408.765 264.045C408.765 261.663 408.158 259.321 407 257.24C408.158 255.159 408.765 252.817 408.765 250.435C408.765 248.053 408.158 245.711 407 243.63V243.63Z" fill="#3F3D56"/>
<path id="Vector_9" opacity="0.1" d="M400.28 234.35C404.98 234.35 408.79 229.367 408.79 223.22C408.79 217.073 404.98 212.09 400.28 212.09C395.58 212.09 391.77 217.073 391.77 223.22C391.77 229.367 395.58 234.35 400.28 234.35Z" fill="#3F3D56"/>
<path id="Vector_10" opacity="0.1" d="M400.28 220.74C404.98 220.74 408.79 215.757 408.79 209.61C408.79 203.463 404.98 198.48 400.28 198.48C395.58 198.48 391.77 203.463 391.77 209.61C391.77 215.757 395.58 220.74 400.28 220.74Z" fill="#3F3D56"/>
<path id="Vector_11" opacity="0.1" d="M368.44 116.48C367.272 115.005 366.213 113.448 365.27 111.82L387.62 108.15L363.45 108.33C361.131 103.284 359.866 97.8174 359.732 92.2654C359.598 86.7134 360.598 81.1925 362.67 76.04L395.1 92.87L365.19 70.87C367.987 66.0182 371.754 61.795 376.257 58.4641C380.759 55.1332 385.899 52.7661 391.357 51.5105C396.815 50.2549 402.473 50.1378 407.978 51.1665C413.483 52.1952 418.717 54.3476 423.353 57.4893C427.989 60.6311 431.928 64.6947 434.924 69.4267C437.919 74.1586 439.907 79.4572 440.764 84.9917C441.62 90.5262 441.327 96.1779 439.901 101.594C438.476 107.01 435.95 112.074 432.48 116.47C434.29 118.774 435.849 121.265 437.13 123.9L408.13 138.97L439.06 128.59C441.233 135.011 441.77 141.872 440.622 148.552C439.475 155.233 436.68 161.522 432.49 166.85C437.224 172.858 440.171 180.076 440.993 187.68C441.816 195.284 440.482 202.967 437.144 209.848C433.805 216.729 428.597 222.532 422.114 226.591C415.632 230.651 408.138 232.804 400.49 232.804C392.842 232.804 385.348 230.651 378.866 226.591C372.383 222.532 367.175 216.729 363.836 209.848C360.498 202.967 359.164 195.284 359.987 187.68C360.809 180.076 363.756 172.858 368.49 166.85C362.84 159.669 359.769 150.797 359.769 141.66C359.769 132.523 362.84 123.651 368.49 116.47L368.44 116.48Z" fill="#E02F6B"/>
<path id="Vector_12" opacity="0.1" d="M441.2 141.67C441.214 150.809 438.141 159.685 432.48 166.86C437.214 172.868 440.16 180.086 440.983 187.69C441.806 195.294 440.472 202.977 437.134 209.858C433.795 216.739 428.587 222.542 422.104 226.601C415.622 230.661 408.128 232.814 400.48 232.814C392.832 232.814 385.338 230.661 378.856 226.601C372.373 222.542 367.165 216.739 363.826 209.858C360.488 202.977 359.154 195.294 359.976 187.69C360.799 180.086 363.746 172.868 368.48 166.86C363 159.93 441.2 137.1 441.2 141.67Z" fill="black"/>
</g>
<path id="Vector_13" opacity="0.1" d="M596.79 71.37C593.22 70.6959 589.53 71.0997 586.19 72.53C584.185 73.4234 582.015 73.8851 579.82 73.8851C577.625 73.8851 575.455 73.4234 573.45 72.53C571.078 71.4889 568.508 70.9756 565.918 71.0257C563.328 71.0757 560.78 71.688 558.45 72.82C557.123 73.5252 555.643 73.8959 554.14 73.9C548.06 73.9 543.01 67.78 541.96 59.71C543.157 58.8181 544.174 57.7088 544.96 56.44C548.52 50.7 554.03 47.01 560.23 47.01C566.43 47.01 571.87 50.65 575.43 56.33C576.49 58.0461 577.977 59.4584 579.745 60.4293C581.513 61.4001 583.503 61.8965 585.52 61.87H585.68C590.57 61.82 594.76 65.7 596.79 71.37Z" fill="#E02F6B"/>
<path id="Vector_14" opacity="0.1" d="M615.3 46.02L605.48 52.24L611.48 41.4C609.79 40.055 607.7 39.3124 605.54 39.29H605.38C604.71 39.2991 604.041 39.2489 603.38 39.14L600 41.25L601.43 38.65C599.067 37.8321 597.025 36.2843 595.6 34.23L589.6 38.01L593.36 31.17C589.88 26.99 585.18 24.43 580.02 24.43C573.82 24.43 568.31 28.11 564.74 33.85C563.688 35.5663 562.2 36.9736 560.428 37.9291C558.656 38.8845 556.662 39.354 554.65 39.29H554.32C547.48 39.29 541.94 47.04 541.94 56.6C541.94 66.16 547.48 73.92 554.32 73.92C555.822 73.91 557.3 73.5396 558.63 72.84C560.959 71.7051 563.507 71.0904 566.097 71.0386C568.687 70.9868 571.258 71.4991 573.63 72.54C575.633 73.4395 577.804 73.9046 580 73.9046C582.196 73.9046 584.367 73.4395 586.37 72.54C588.723 71.5224 591.268 71.0217 593.831 71.0717C596.395 71.1218 598.918 71.7214 601.23 72.83C602.545 73.5182 604.006 73.8817 605.49 73.89C612.33 73.89 617.87 66.13 617.87 56.57C617.911 52.8935 617.027 49.2656 615.3 46.02V46.02Z" fill="#E02F6B"/>
<path id="Vector_15" opacity="0.1" d="M406.426 112.886L396.597 118.039L402.603 109.059C400.911 107.945 398.819 107.329 396.657 107.311H396.497C395.827 107.318 395.157 107.277 394.496 107.187L391.112 108.935L392.544 106.781C390.179 106.103 388.135 104.821 386.708 103.119L380.703 106.25L384.466 100.584C380.983 97.1208 376.279 95 371.114 95C364.909 95 359.394 98.0487 355.821 102.804C354.767 104.226 353.278 105.392 351.504 106.183C349.731 106.975 347.736 107.364 345.722 107.311H345.391C338.545 107.311 333 113.731 333 121.651C333 129.571 338.545 136 345.391 136C346.895 135.992 348.374 135.685 349.705 135.105C352.036 134.165 354.586 133.656 357.179 133.613C359.771 133.57 362.344 133.994 364.719 134.857C366.724 135.602 368.897 135.987 371.094 135.987C373.292 135.987 375.465 135.602 377.47 134.857C379.826 134.014 382.373 133.599 384.938 133.64C387.504 133.682 390.029 134.179 392.344 135.097C393.66 135.667 395.122 135.968 396.607 135.975C403.454 135.975 408.999 129.546 408.999 121.626C409.04 118.581 408.155 115.575 406.426 112.886V112.886Z" fill="#E02F6B"/>
<path id="Vector_16" opacity="0.1" d="M179.26 65.96C176.758 65.4873 174.172 65.7692 171.83 66.77C170.428 67.3963 168.91 67.7201 167.375 67.7201C165.84 67.7201 164.322 67.3963 162.92 66.77C161.261 66.0414 159.463 65.6828 157.652 65.7191C155.84 65.7553 154.058 66.1856 152.43 66.98C151.503 67.4633 150.475 67.7203 149.43 67.73C145.18 67.73 141.64 63.45 140.9 57.8C141.748 57.1782 142.471 56.4011 143.03 55.51C145.52 51.51 149.38 48.91 153.72 48.91C158.06 48.91 161.87 51.46 164.36 55.43C165.104 56.6317 166.145 57.6207 167.384 58.3006C168.623 58.9804 170.017 59.3282 171.43 59.31H171.54C174.9 59.29 177.83 62.01 179.26 65.96Z" fill="#E02F6B"/>
<path id="Vector_17" opacity="0.1" d="M192.21 48.23L185.34 52.59L189.51 45C188.331 44.0564 186.87 43.5353 185.36 43.52H185.24C184.764 43.5285 184.289 43.4917 183.82 43.41L181.49 44.89L182.49 43.07C180.838 42.4955 179.411 41.4141 178.41 39.98L174.24 42.62L176.88 37.84C175.771 36.4084 174.358 35.2412 172.743 34.4232C171.127 33.6051 169.35 33.1565 167.54 33.11C163.2 33.11 159.34 35.69 156.85 39.71C156.112 40.9119 155.069 41.8974 153.828 42.5665C152.586 43.2356 151.19 43.5645 149.78 43.52H149.55C144.76 43.52 140.88 48.94 140.88 55.64C140.88 62.34 144.76 67.76 149.55 67.76C150.597 67.7519 151.626 67.4912 152.55 67C154.178 66.21 155.959 65.783 157.768 65.7485C159.577 65.7139 161.373 66.0727 163.03 66.8C164.44 67.4432 165.97 67.7838 167.52 67.8C169.046 67.7973 170.555 67.4772 171.95 66.86C173.597 66.1473 175.378 65.7963 177.172 65.8308C178.966 65.8653 180.732 66.2845 182.35 67.06C183.276 67.545 184.305 67.7989 185.35 67.8C190.13 67.8 194.01 62.37 194.01 55.68C194.05 53.0843 193.431 50.5209 192.21 48.23V48.23Z" fill="#E02F6B"/>
<path id="Vector_18" opacity="0.1" d="M57.59 144.37C60.0889 143.898 62.6718 144.18 65.01 145.18C66.4134 145.807 67.9331 146.13 69.47 146.13C71.0069 146.13 72.5266 145.807 73.93 145.18C75.5889 144.452 77.3859 144.094 79.197 144.128C81.008 144.163 82.7901 144.59 84.42 145.38C85.3438 145.872 86.3733 146.133 87.42 146.14C91.67 146.14 95.21 141.85 95.94 136.2C95.0924 135.58 94.3726 134.803 93.82 133.91C91.32 129.91 87.46 127.32 83.13 127.32C78.8 127.32 74.98 129.86 72.48 133.84C71.7373 135.04 70.697 136.028 69.46 136.708C68.223 137.388 66.8314 137.736 65.42 137.72H65.31C61.94 137.74 59 140.45 57.59 144.37Z" fill="#E02F6B"/>
<path id="Vector_19" opacity="0.1" d="M44.63 126.67L51.51 131.03L47.33 123.45C48.5117 122.503 49.976 121.979 51.49 121.96H51.6C52.0786 121.967 52.557 121.933 53.03 121.86L55.36 123.33L54.36 121.52C56.0082 120.944 57.4325 119.863 58.43 118.43L62.6 121.07L60 116.28C61.1092 114.85 62.5227 113.684 64.1382 112.868C65.7537 112.051 67.5305 111.605 69.34 111.56C73.67 111.56 77.54 114.14 80.03 118.16C80.7671 119.36 81.8082 120.345 83.0479 121.014C84.2876 121.683 85.6819 122.013 87.09 121.97H87.33C92.11 121.97 95.99 127.4 95.99 134.09C95.99 140.78 92.11 146.21 87.33 146.21C86.2841 146.205 85.2549 145.948 84.33 145.46C82.7015 144.666 80.9197 144.235 79.1081 144.199C77.2966 144.163 75.4989 144.521 73.84 145.25C72.435 145.899 70.9075 146.24 69.36 146.25C67.8307 146.249 66.3186 145.929 64.92 145.31C63.2748 144.597 61.4958 144.247 59.7033 144.281C57.9107 144.316 56.1465 144.735 54.53 145.51C53.6043 145.995 52.575 146.249 51.53 146.25C46.74 146.25 42.86 140.83 42.86 134.13C42.8134 131.534 43.4221 128.968 44.63 126.67V126.67Z" fill="#E02F6B"/>
<path id="Vector_20" d="M452.31 451.26C454.92 446.42 451.96 440.5 448.56 436.19C445.16 431.88 441 427.39 441.09 421.9C441.22 414.01 449.6 409.34 456.29 405.16C461.258 402.045 465.84 398.352 469.94 394.16C471.655 392.546 473.073 390.644 474.13 388.54C475.52 385.46 475.48 381.94 475.39 378.54C475.103 367.28 474.547 356.027 473.72 344.78" stroke="#3F3D56" stroke-width="4" stroke-miterlimit="10"/>
<path id="Vector_21" d="M486.45 344.22C486.353 342.157 485.74 340.152 484.665 338.389C483.59 336.626 482.089 335.161 480.3 334.13L477.54 339.58L477.63 332.98C475.127 332.243 472.454 332.32 469.998 333.201C467.542 334.082 465.429 335.72 463.965 337.88C462.5 340.039 461.76 342.608 461.851 345.216C461.941 347.824 462.858 350.335 464.469 352.388C466.08 354.441 468.301 355.929 470.812 356.637C473.324 357.345 475.995 357.237 478.441 356.328C480.887 355.419 482.981 353.756 484.42 351.58C485.86 349.404 486.571 346.826 486.45 344.22V344.22Z" fill="#E02F6B"/>
<path id="Vector_22" d="M464.49 427.54C463.252 429.947 461.255 431.879 458.808 433.036C456.361 434.193 453.601 434.512 450.955 433.943C448.308 433.374 445.924 431.948 444.169 429.887C442.415 427.825 441.389 425.243 441.25 422.54C441.158 420.835 441.431 419.131 442.05 417.54C442.957 415.22 444.545 413.229 446.606 411.83C448.667 410.431 451.104 409.69 453.595 409.704C456.086 409.718 458.514 410.487 460.559 411.909C462.604 413.331 464.17 415.34 465.05 417.67L457.36 423.93L465.82 421.93C465.83 423.879 465.374 425.803 464.49 427.54V427.54Z" fill="#E02F6B"/>
<path id="Vector_23" d="M458.41 403.64C455.389 403.782 452.421 402.808 450.073 400.902C447.725 398.996 446.16 396.292 445.678 393.306C445.196 390.32 445.83 387.262 447.459 384.714C449.088 382.165 451.598 380.306 454.51 379.49L454.44 384.56L457.23 379.04C460.492 378.887 463.681 380.037 466.096 382.236C468.51 384.435 469.952 387.503 470.105 390.765C470.257 394.027 469.108 397.216 466.909 399.631C464.71 402.045 461.642 403.488 458.38 403.64H458.41Z" fill="#E02F6B"/>
<path id="Vector_24" d="M488.3 383.75C486.391 383.849 484.486 383.501 482.735 382.736C480.984 381.971 479.435 380.808 478.211 379.34C476.987 377.873 476.121 376.14 475.683 374.28C475.245 372.42 475.245 370.483 475.685 368.623C476.125 366.763 476.992 365.031 478.217 363.564C479.443 362.098 480.992 360.936 482.744 360.173C484.496 359.409 486.402 359.063 488.31 359.163C490.219 359.264 492.078 359.807 493.74 360.75L491.57 366.75L496 362.37C497.792 364.013 499.057 366.149 499.636 368.51C500.216 370.871 500.083 373.35 499.255 375.636C498.427 377.921 496.942 379.911 494.985 381.353C493.028 382.795 490.688 383.626 488.26 383.74L488.3 383.75Z" fill="#E02F6B"/>
<path id="Vector_25" opacity="0.1" d="M484.79 347.5C481.95 347.81 479.19 348.69 476.33 348.87C473.47 349.05 470.33 348.36 468.55 346.15C467.713 344.862 466.952 343.527 466.27 342.15C465.493 340.937 464.428 339.933 463.17 339.23C462.374 340.79 461.919 342.502 461.838 344.252C461.756 346.002 462.048 347.749 462.696 349.376C463.343 351.004 464.33 352.475 465.591 353.69C466.853 354.906 468.359 355.838 470.009 356.425C471.659 357.012 473.416 357.24 475.162 357.094C476.907 356.948 478.601 356.431 480.131 355.577C481.661 354.724 482.991 353.554 484.032 352.146C485.074 350.737 485.802 349.123 486.17 347.41C485.72 347.42 485.25 347.45 484.79 347.5Z" fill="black"/>
<path id="Vector_26" opacity="0.1" d="M488.3 383.75C486.177 383.85 484.065 383.4 482.168 382.442C480.272 381.484 478.655 380.051 477.476 378.283C476.297 376.516 475.596 374.473 475.441 372.353C475.285 370.234 475.681 368.111 476.59 366.19C477.566 366.849 478.405 367.691 479.06 368.67C479.795 370.072 480.61 371.431 481.5 372.74C483.42 374.99 486.7 375.74 489.67 375.59C492.64 375.44 495.51 374.59 498.47 374.34C498.88 374.34 499.29 374.28 499.71 374.27C499.098 376.876 497.652 379.211 495.593 380.922C493.534 382.632 490.974 383.625 488.3 383.75V383.75Z" fill="black"/>
<path id="Vector_27" opacity="0.1" d="M458.41 403.64C456.309 403.738 454.219 403.297 452.337 402.358C450.455 401.419 448.846 400.014 447.661 398.276C446.477 396.538 445.758 394.526 445.572 392.431C445.386 390.336 445.74 388.229 446.6 386.31C447.615 386.978 448.499 387.825 449.21 388.81C450.016 390.245 450.908 391.631 451.88 392.96C453.95 395.27 457.45 396.09 460.59 395.96C463.73 395.83 466.59 395.15 469.59 394.96C468.843 397.38 467.37 399.511 465.37 401.064C463.369 402.617 460.939 403.516 458.41 403.64Z" fill="black"/>
<path id="Vector_28" opacity="0.1" d="M464.49 427.54C463.252 429.947 461.255 431.879 458.808 433.036C456.361 434.193 453.601 434.512 450.955 433.943C448.308 433.374 445.924 431.948 444.169 429.887C442.415 427.825 441.389 425.243 441.25 422.54C441.158 420.835 441.431 419.131 442.05 417.54C443.064 418.206 443.974 419.018 444.75 419.95C445.92 421.37 446.69 422.95 448.05 424.32C450.56 426.79 454.63 427.81 458.24 427.9C460.329 427.906 462.416 427.786 464.49 427.54V427.54Z" fill="black"/>
<path id="Vector_29" d="M248.52 296.89C245.91 292.06 248.87 286.14 252.28 281.83C255.69 277.52 259.83 273.03 259.74 267.54C259.62 259.64 251.24 254.98 244.54 250.8C239.574 247.686 234.995 243.994 230.9 239.8C229.177 238.195 227.755 236.295 226.7 234.19C225.32 231.1 225.36 227.59 225.44 224.19C225.74 212.93 226.297 201.677 227.11 190.43" stroke="#3F3D56" stroke-width="4" stroke-miterlimit="10"/>
<path id="Vector_30" d="M214.39 189.86C214.485 187.798 215.097 185.793 216.17 184.03C217.243 182.266 218.742 180.802 220.53 179.77L223.29 185.22L223.21 178.62C224.524 178.238 225.892 178.073 227.26 178.13C229.692 178.243 232.035 179.075 233.994 180.52C235.954 181.965 237.44 183.959 238.266 186.249C239.093 188.539 239.221 191.022 238.636 193.385C238.051 195.748 236.778 197.885 234.979 199.525C233.18 201.165 230.935 202.234 228.528 202.598C226.121 202.962 223.66 202.604 221.456 201.57C219.252 200.536 217.405 198.871 216.147 196.787C214.889 194.702 214.278 192.292 214.39 189.86V189.86Z" fill="#E02F6B"/>
<path id="Vector_31" d="M236.34 273.18C237.63 275.692 239.746 277.684 242.331 278.822C244.916 279.96 247.813 280.175 250.538 279.429C253.262 278.684 255.647 277.025 257.293 274.73C258.939 272.435 259.746 269.643 259.578 266.824C259.41 264.005 258.278 261.329 256.371 259.245C254.465 257.161 251.899 255.797 249.106 255.38C246.312 254.964 243.461 255.52 241.029 256.957C238.597 258.393 236.733 260.622 235.75 263.27L243.44 269.53L234.98 267.53C234.973 269.495 235.44 271.433 236.34 273.18V273.18Z" fill="#E02F6B"/>
<path id="Vector_32" d="M242.42 249.28C245.442 249.425 248.412 248.453 250.762 246.547C253.113 244.642 254.679 241.938 255.163 238.952C255.647 235.965 255.013 232.905 253.384 230.355C251.755 227.806 249.244 225.946 246.33 225.13L246.39 230.2L243.6 224.68C240.339 224.52 237.148 225.661 234.729 227.853C232.31 230.046 230.86 233.109 230.7 236.37C230.63 237.79 230.809 239.212 231.23 240.57C231.968 242.999 233.44 245.14 235.444 246.7C237.447 248.259 239.884 249.161 242.42 249.28V249.28Z" fill="#E02F6B"/>
<path id="Vector_33" d="M212.54 229.37C214.448 229.467 216.353 229.119 218.103 228.352C219.854 227.586 221.402 226.423 222.625 224.954C223.848 223.486 224.712 221.753 225.149 219.893C225.587 218.033 225.585 216.097 225.144 214.238C224.704 212.378 223.836 210.647 222.611 209.181C221.385 207.715 219.836 206.554 218.084 205.791C216.332 205.028 214.427 204.682 212.519 204.783C210.61 204.883 208.752 205.427 207.09 206.37L209.27 212.37L204.79 208.08C203.595 209.163 202.626 210.471 201.94 211.93C201.253 213.389 200.862 214.969 200.79 216.58C200.73 217.719 200.835 218.861 201.1 219.97C201.727 222.567 203.183 224.888 205.247 226.584C207.311 228.28 209.871 229.258 212.54 229.37Z" fill="#E02F6B"/>
<path id="Vector_34" opacity="0.1" d="M216.05 193.14C218.89 193.45 221.65 194.33 224.5 194.51C227.35 194.69 230.5 194 232.29 191.79C233.124 190.502 233.882 189.166 234.56 187.79C235.341 186.576 236.409 185.573 237.67 184.87C238.468 186.431 238.923 188.144 239.006 189.894C239.089 191.645 238.796 193.393 238.149 195.022C237.501 196.651 236.513 198.122 235.251 199.339C233.989 200.555 232.482 201.487 230.83 202.074C229.178 202.661 227.421 202.888 225.674 202.74C223.928 202.593 222.233 202.074 220.703 201.219C219.173 200.364 217.843 199.192 216.803 197.781C215.763 196.371 215.035 194.754 214.67 193.04C215.12 193.05 215.58 193.09 216.05 193.14Z" fill="black"/>
<path id="Vector_35" opacity="0.1" d="M212.54 229.37C214.662 229.468 216.772 229.015 218.667 228.056C220.563 227.098 222.178 225.665 223.356 223.898C224.534 222.131 225.236 220.09 225.392 217.972C225.549 215.854 225.156 213.731 224.25 211.81C223.271 212.469 222.429 213.311 221.77 214.29C221.035 215.692 220.22 217.051 219.33 218.36C217.42 220.61 214.14 221.36 211.17 221.21C208.2 221.06 205.33 220.21 202.37 219.96C201.96 219.96 201.54 219.9 201.13 219.89C201.741 222.497 203.186 224.833 205.245 226.544C207.304 228.255 209.866 229.247 212.54 229.37V229.37Z" fill="black"/>
<path id="Vector_36" opacity="0.1" d="M242.42 249.28C244.522 249.381 246.614 248.942 248.497 248.003C250.38 247.065 251.991 245.66 253.176 243.921C254.361 242.182 255.08 240.169 255.265 238.073C255.449 235.977 255.093 233.869 254.23 231.95C253.217 232.616 252.335 233.463 251.63 234.45C250.824 235.885 249.932 237.271 248.96 238.6C246.88 240.91 243.39 241.73 240.24 241.6C237.09 241.47 234.24 240.79 231.24 240.6C231.983 243.022 233.455 245.156 235.456 246.709C237.457 248.263 239.889 249.161 242.42 249.28V249.28Z" fill="black"/>
<path id="Vector_37" opacity="0.1" d="M236.34 273.18C237.785 275.966 240.239 278.094 243.201 279.131C246.163 280.167 249.41 280.033 252.276 278.756C255.143 277.48 257.413 275.156 258.624 272.261C259.835 269.366 259.894 266.117 258.79 263.18C257.772 263.84 256.861 264.653 256.09 265.59C254.92 267.01 254.09 268.59 252.79 269.96C250.27 272.43 246.21 273.45 242.59 273.54C240.501 273.541 238.415 273.421 236.34 273.18V273.18Z" fill="black"/>
<path id="Vector_38" d="M567.73 299.14C622.936 299.14 667.69 254.386 667.69 199.18C667.69 143.974 622.936 99.22 567.73 99.22C512.524 99.22 467.77 143.974 467.77 199.18C467.77 254.386 512.524 299.14 567.73 299.14Z" fill="#3F3D56"/>
<path id="Vector_39" d="M610.64 224.96C607.16 221.48 598.79 216.23 594.64 214.27C589.85 211.97 588.09 212.01 584.7 214.46C581.88 216.46 580.05 218.39 576.81 217.68C573.57 216.97 567.15 212.13 560.94 205.94C554.73 199.75 549.91 193.37 549.22 190.08C548.53 186.79 550.43 185 552.45 182.18C554.89 178.79 554.96 177.03 552.64 172.24C550.64 168.09 545.45 159.74 541.94 156.24C538.43 152.74 537.67 153.51 535.75 154.24C533.774 155.068 531.876 156.072 530.08 157.24C526.6 159.57 524.65 161.51 523.28 164.43C521.91 167.35 520.36 172.77 528.33 186.96C534.209 197.815 541.656 207.745 550.43 216.43V216.43C559.144 225.224 569.108 232.684 580 238.57C594.18 246.57 599.61 244.98 602.53 243.62C605.45 242.26 607.39 240.33 609.71 236.82C610.88 235.025 611.884 233.127 612.71 231.15C613.37 229.23 614.15 228.45 610.64 224.96Z" fill="#E02F6B"/>
<path id="Vector_40" opacity="0.1" d="M567.73 99.23C547.948 99.2201 528.607 105.078 512.154 116.062C495.702 127.047 482.877 142.664 475.302 160.939C467.727 179.213 465.742 199.324 469.599 218.727C473.456 238.13 482.981 255.952 496.969 269.941C510.958 283.929 528.78 293.454 548.183 297.311C567.586 301.168 587.697 299.183 605.971 291.608C624.246 284.033 639.863 271.208 650.848 254.756C661.832 238.303 667.69 218.962 667.68 199.18C667.667 172.676 657.132 147.261 638.391 128.519C619.649 109.778 594.234 99.2432 567.73 99.23V99.23ZM567.73 285.85C550.588 285.85 533.832 280.767 519.579 271.243C505.326 261.72 494.217 248.184 487.657 232.347C481.098 216.51 479.381 199.084 482.725 182.272C486.07 165.459 494.324 150.016 506.445 137.895C518.566 125.774 534.009 117.52 550.822 114.175C567.634 110.831 585.06 112.548 600.897 119.107C616.734 125.667 630.27 136.776 639.793 151.029C649.317 165.282 654.4 182.038 654.4 199.18C654.4 210.562 652.158 221.832 647.803 232.347C643.447 242.862 637.063 252.417 629.015 260.465C620.967 268.513 611.412 274.897 600.897 279.253C590.382 283.608 579.112 285.85 567.73 285.85Z" fill="black"/>
<path id="Vector_41" d="M338.08 450.97C393.286 450.97 438.04 406.216 438.04 351.01C438.04 295.804 393.286 251.05 338.08 251.05C282.874 251.05 238.12 295.804 238.12 351.01C238.12 406.216 282.874 450.97 338.08 450.97Z" fill="#3F3D56"/>
<path id="Vector_42" d="M394.93 320.81L365 351.26C364.947 351.31 364.906 351.371 364.877 351.438C364.848 351.505 364.834 351.577 364.834 351.65C364.834 351.723 364.848 351.795 364.877 351.862C364.906 351.929 364.947 351.99 365 352.04L386 374.37C386.502 374.876 386.844 375.519 386.982 376.219C387.12 376.919 387.049 377.644 386.776 378.303C386.504 378.962 386.043 379.526 385.451 379.924C384.859 380.322 384.163 380.536 383.45 380.54C382.49 380.538 381.57 380.157 380.89 379.48L360 357.23C359.893 357.125 359.75 357.066 359.6 357.066C359.45 357.066 359.307 357.125 359.2 357.23L354.11 362.37C352.026 364.501 349.537 366.194 346.789 367.35C344.042 368.506 341.091 369.101 338.11 369.1C335.073 369.086 332.069 368.467 329.274 367.279C326.478 366.09 323.948 364.357 321.83 362.18L316.94 357.18C316.833 357.075 316.69 357.016 316.54 357.016C316.39 357.016 316.247 357.075 316.14 357.18L295.3 379.38C294.965 379.716 294.566 379.982 294.128 380.164C293.69 380.346 293.22 380.44 292.745 380.44C292.27 380.44 291.8 380.346 291.362 380.164C290.924 379.982 290.525 379.716 290.19 379.38C289.853 379.045 289.585 378.647 289.403 378.209C289.22 377.77 289.126 377.3 289.126 376.825C289.126 376.35 289.22 375.88 289.403 375.441C289.585 375.003 289.853 374.605 290.19 374.27L311.11 351.99C311.203 351.881 311.254 351.743 311.254 351.6C311.254 351.457 311.203 351.319 311.11 351.21L281.18 320.76C281.103 320.683 281.005 320.63 280.898 320.609C280.791 320.587 280.68 320.598 280.579 320.64C280.478 320.682 280.392 320.752 280.332 320.843C280.272 320.934 280.24 321.041 280.24 321.15V382.08C280.248 384.435 281.187 386.692 282.853 388.357C284.518 390.023 286.775 390.962 289.13 390.97H387C389.355 390.962 391.612 390.023 393.277 388.357C394.943 386.692 395.882 384.435 395.89 382.08V321.2C395.895 321.087 395.865 320.974 395.803 320.879C395.742 320.783 395.653 320.709 395.548 320.666C395.442 320.624 395.327 320.615 395.216 320.64C395.105 320.666 395.006 320.725 394.93 320.81V320.81Z" fill="#E02F6B"/>
<path id="Vector_43" d="M338.08 361.87C340.109 361.89 342.121 361.502 343.997 360.729C345.873 359.956 347.574 358.814 349 357.37L392.59 313C391.043 311.718 389.099 311.012 387.09 311H289.15C287.14 311.007 285.195 311.714 283.65 313L327.25 357.37C328.663 358.805 330.35 359.943 332.21 360.716C334.07 361.489 336.066 361.881 338.08 361.87V361.87Z" fill="#E02F6B"/>
<path id="Vector_44" opacity="0.1" d="M336.82 251.06C317.038 251.05 297.697 256.908 281.244 267.892C264.792 278.877 251.967 294.494 244.392 312.769C236.817 331.043 234.832 351.154 238.689 370.557C242.546 389.96 252.071 407.782 266.059 421.771C280.048 435.759 297.871 445.284 317.273 449.141C336.676 452.998 356.787 451.013 375.061 443.438C393.336 435.863 408.953 423.038 419.938 406.586C430.922 390.133 436.78 370.792 436.77 351.01C436.757 324.506 426.222 299.091 407.481 280.349C388.739 261.608 363.324 251.073 336.82 251.06ZM336.82 437.68C319.678 437.68 302.922 432.597 288.669 423.074C274.416 413.55 263.307 400.014 256.747 384.177C250.188 368.34 248.471 350.914 251.815 334.102C255.16 317.289 263.414 301.846 275.535 289.725C287.656 277.604 303.099 269.35 319.912 266.005C336.724 262.661 354.15 264.378 369.987 270.937C385.824 277.497 399.36 288.606 408.883 302.859C418.407 317.112 423.49 333.868 423.49 351.01C423.49 373.996 414.359 396.041 398.105 412.295C381.851 428.549 359.806 437.68 336.82 437.68Z" fill="black"/>
<path id="Vector_45" d="M100.85 376.32C156.056 376.32 200.81 331.566 200.81 276.36C200.81 221.154 156.056 176.4 100.85 176.4C45.6436 176.4 0.890015 221.154 0.890015 276.36C0.890015 331.566 45.6436 376.32 100.85 376.32Z" fill="#3F3D56"/>
<path id="Vector_46" d="M100.85 228.53L61 320.47L64.72 324.19L100.86 308.25L137 324.19L140.72 320.47L100.85 228.53Z" fill="#E02F6B"/>
<path id="Vector_47" opacity="0.1" d="M100.85 176.37C81.0697 176.36 61.7308 182.217 45.2794 193.199C28.8279 204.181 16.0028 219.795 8.42639 238.067C0.849957 256.339 -1.13749 276.447 2.71539 295.848C6.56826 315.25 16.0884 333.073 30.0717 347.063C44.0549 361.053 61.8731 370.582 81.2726 374.445C100.672 378.307 120.781 376.33 139.057 368.763C157.332 361.195 172.953 348.378 183.943 331.932C194.934 315.486 200.8 296.15 200.8 276.37C200.8 249.857 190.271 224.429 171.528 205.677C152.786 186.925 127.363 176.383 100.85 176.37V176.37ZM100.85 362.99C83.7062 362.99 66.9474 357.906 52.6935 348.38C38.4396 338.854 27.331 325.315 20.7726 309.476C14.2142 293.636 12.5008 276.207 15.849 259.393C19.1973 242.579 27.4567 227.136 39.5828 215.017C51.7088 202.898 67.1566 194.648 83.9722 191.309C100.788 187.971 118.216 189.694 134.052 196.262C149.888 202.829 163.42 213.946 172.938 228.205C182.455 242.465 187.53 259.226 187.52 276.37C187.517 299.355 178.385 321.397 162.131 337.649C145.878 353.9 123.835 363.03 100.85 363.03V362.99Z" fill="black"/>
<path id="Vector_48" d="M576.93 402.25C576.023 400.037 575.093 397.83 574.14 395.63C573.355 393.483 572.201 391.49 570.73 389.74C570.171 389.11 569.491 388.6 568.73 388.24C567.893 387.931 567.012 387.756 566.12 387.72C564.76 387.549 563.387 387.512 562.02 387.61C561.49 387.45 560.89 387.24 560.3 387C563.259 386.223 565.89 384.515 567.805 382.13C569.721 379.745 570.82 376.807 570.94 373.75C570.94 373.55 570.94 373.34 570.94 373.14C570.948 371.269 570.587 369.414 569.878 367.682C569.169 365.95 568.126 364.375 566.809 363.046C565.491 361.717 563.925 360.661 562.199 359.938C560.473 359.214 558.621 358.838 556.75 358.83C554.116 358.825 551.533 359.563 549.3 360.96C546.351 360.291 543.261 360.642 540.537 361.955C537.813 363.268 535.614 365.466 534.3 368.19C532.644 369.775 531.335 371.686 530.457 373.804C529.579 375.921 529.151 378.198 529.2 380.49C529.2 380.7 529.2 380.92 529.2 381.12C529.46 388.89 534.48 395.12 540.82 395.75C540.142 396.055 539.52 396.47 538.98 396.98C537.04 398.85 536.72 401.82 536.51 404.52L536.36 406.52L533 407.72C532.893 407.758 532.799 407.825 532.727 407.913C532.656 408.001 532.61 408.107 532.594 408.219C532.579 408.332 532.594 408.446 532.639 408.551C532.685 408.655 532.757 408.744 532.85 408.81L536.06 411.1C536.06 411.29 536.06 411.48 536.06 411.67C536.06 411.86 536.06 412.1 536.12 412.32C535.572 412.803 535.147 413.41 534.88 414.09C534.567 415.14 534.469 416.242 534.59 417.33L534.71 420.12C534.694 422.22 534.981 424.311 535.56 426.33C535.98 427.57 537.8 430.56 539.11 430.58C537.9 436.08 537.58 447.68 537.58 447.68C537.43 447.83 537.85 447.97 538.58 448.09C539.3 453.61 541.65 469.09 545.82 475.9C546.476 478.12 547.001 480.378 547.39 482.66C547.39 482.66 548.58 497.37 550.15 501.74C551.49 505.46 552.55 514.64 552.84 517.3C552.568 517.37 552.321 517.513 552.125 517.714C551.929 517.915 551.793 518.166 551.73 518.44C550.94 520.82 545.82 524.44 545.82 524.44C544.251 525.224 542.769 526.173 541.4 527.27C539.79 528.72 539.85 530.03 547 529.21C560.8 527.62 563.16 523.21 563.16 523.21C563.16 523.21 562.94 522.47 562.61 521.51C562.189 520.016 561.58 518.582 560.8 517.24C560.6 517.05 560.4 517.37 560.16 517.87C559.119 511.489 558.803 505.012 559.22 498.56C559.22 498.56 559.61 491.8 557.64 487.03C557.202 484.532 557.202 481.978 557.64 479.48C558.43 476.3 554.49 460.79 554.49 460.79L552.23 449.37C552.538 449.76 552.753 450.215 552.86 450.7L552.92 450.93L552.98 451.26C553.003 451.377 553.058 451.484 553.14 451.57C554.68 457.97 558.9 475.7 558.9 478.3C558.9 481.48 562.84 489.43 562.84 489.43C562.84 489.43 564.41 502.55 567.17 507.71C569.27 511.64 569.32 517.4 569.22 519.94C569.22 519.94 568.75 523.21 567.96 524C567.332 524.781 566.829 525.655 566.47 526.59L566.38 526.78C566.38 526.78 565.2 529.17 565.99 529.57C568.995 530.749 572.247 531.158 575.45 530.76C575.45 530.76 577.03 528.76 577.03 527.98C576.997 527.504 576.937 527.03 576.85 526.56C576.56 524.68 576.02 521.72 576.01 521.69C576.34 520.41 575.01 516.85 575.01 516.85L574.61 505.72C575.342 498.184 574.4 490.579 571.85 483.45C571.85 483.45 569.85 476.3 570.28 474.31C570.71 472.32 569.49 451.25 569.49 451.25L569.37 450.95C569.263 449.46 569.303 447.962 569.49 446.48C569.88 441.71 568.31 431.77 567.91 431.38C567.584 430.312 567.396 429.206 567.35 428.09C567.44 427.26 567.71 424.83 568.08 421.81C571.968 421.677 575.846 421.343 579.7 420.81C580.072 420.81 580.43 420.667 580.7 420.41C580.858 420.17 580.938 419.887 580.93 419.6C581.39 413.61 579.2 407.79 576.93 402.25ZM569 414.86C569.41 412.01 569.85 409.25 570.29 407.2L570.35 407.38C571.107 409.441 571.741 411.544 572.25 413.68C571.2 414.16 570.113 414.555 569 414.86Z" fill="url(#paint0_linear_1:170)"/>
<path id="Vector_49" d="M538.37 447.05C538.37 447.05 540.73 468.28 545.84 476.53C546.497 478.723 547.021 480.954 547.41 483.21C547.41 483.21 548.59 497.75 550.16 502.07C551.73 506.39 552.91 518.19 552.91 518.19C552.91 518.19 558.41 524.47 560.38 519.37C559.143 512.632 558.746 505.766 559.2 498.93C559.2 498.93 559.59 492.25 557.63 487.53C557.192 485.063 557.192 482.537 557.63 480.07C558.41 476.92 554.48 461.6 554.48 461.6L551.34 446.27L538.37 447.05Z" fill="#BE6F72"/>
<path id="Vector_50" d="M563.13 523.3C563.13 523.3 560.77 527.62 547.02 529.19C539.88 530 539.83 528.71 541.44 527.27C542.805 526.185 544.279 525.247 545.84 524.47C545.84 524.47 550.95 520.94 551.73 518.58C552.51 516.22 555.27 518.19 555.27 518.19C559.2 524.08 559.99 516.61 560.77 517.4C561.553 518.719 562.161 520.134 562.58 521.61C562.91 522.56 563.13 523.3 563.13 523.3Z" fill="#FF6F61"/>
<path id="Vector_51" opacity="0.1" d="M563.13 523.3C563.13 523.3 560.77 527.62 547.02 529.19C539.88 530 539.83 528.71 541.44 527.27C542.56 527.98 544.82 528.27 549.37 526.44C555.92 523.76 560.67 522.21 562.58 521.61C562.91 522.56 563.13 523.3 563.13 523.3Z" fill="black"/>
<path id="Vector_52" opacity="0.1" d="M559.2 498.93C559.2 498.93 559.59 492.25 557.63 487.53C557.192 485.063 557.192 482.537 557.63 480.07C558.41 476.92 554.48 461.6 554.48 461.6L551.34 446.27L548.62 446.43L551.73 461.6C551.73 461.6 555.66 476.92 554.88 480.07C554.442 482.537 554.442 485.063 554.88 487.53C556.88 492.25 556.45 498.93 556.45 498.93C555.996 505.766 556.393 512.632 557.63 519.37C557.417 520.01 557.021 520.573 556.49 520.99C557.95 521.65 559.49 521.62 560.38 519.37C559.143 512.632 558.746 505.766 559.2 498.93V498.93Z" fill="black"/>
<path id="Vector_53" d="M556.64 360.79C554.018 360.785 551.447 361.516 549.22 362.9C546.28 362.221 543.196 362.558 540.472 363.857C537.748 365.155 535.544 367.338 534.22 370.05C532.571 371.61 531.266 373.498 530.389 375.592C529.513 377.686 529.084 379.94 529.13 382.21C529.13 390.57 534.76 397.34 541.7 397.34C546.7 397.34 551.08 393.78 553.09 388.63C554.245 388.936 555.435 389.091 556.63 389.09C560.383 389.09 563.982 387.599 566.636 384.946C569.289 382.292 570.78 378.693 570.78 374.94C570.78 371.187 569.289 367.588 566.636 364.934C563.982 362.281 560.383 360.79 556.63 360.79H556.64Z" fill="#3F3D56"/>
<path id="Vector_54" d="M568.24 449.02L569.42 452.16C569.42 452.16 570.6 472.99 570.2 474.96C569.8 476.93 571.78 483.96 571.78 483.96C574.321 490.998 575.261 498.513 574.53 505.96L574.92 516.96C574.92 516.96 576.49 521.28 575.71 522.07C574.93 522.86 569 521.37 569 521.37C569 521.37 569.79 513.12 567 508.01C564.21 502.9 562.68 489.93 562.68 489.93C562.68 489.93 558.75 482.07 558.75 478.93C558.75 475.79 552.46 450.24 552.46 450.24L568.24 449.02Z" fill="#BE6F72"/>
<path id="Vector_55" d="M537.58 448.63C537.58 448.63 537.98 434.48 539.58 430.16C540.394 428.141 540.981 426.038 541.33 423.89C541.33 423.89 565.12 428.19 567.09 426.62C567.09 426.62 567.48 432.12 567.88 432.51C568.28 432.9 569.88 442.73 569.45 447.45C569.02 452.17 569.45 452.16 569.45 452.16C569.45 452.16 553.33 454.52 552.94 452.16C552.55 449.8 551.37 449.81 551.37 449.81C551.37 449.81 536.8 449.37 537.58 448.63Z" fill="#3F3D56"/>
<g id="Group_3" opacity="0.1">
<path id="Vector_56" opacity="0.1" d="M550.55 448.63C550.55 448.63 540.61 448.36 537.61 447.82C537.61 448.33 537.61 448.63 537.61 448.63C536.83 449.41 551.37 449.81 551.37 449.81C551.568 449.828 551.756 449.905 551.91 450.03C551.38 448.63 550.55 448.63 550.55 448.63Z" fill="black"/>
<path id="Vector_57" opacity="0.1" d="M567.85 432.51C567.45 432.12 567.06 426.62 567.06 426.62C566.856 426.747 566.628 426.828 566.39 426.86C566.53 428.52 566.8 431.07 567.06 431.33C567.32 431.59 569.06 441.55 568.63 446.27C568.2 450.99 568.63 450.98 568.63 450.98C568.63 450.98 555.88 452.85 552.79 451.6C552.79 451.77 552.88 451.96 552.91 452.16C553.3 454.52 569.42 452.16 569.42 452.16C569.42 452.16 569.02 452.16 569.42 447.45C569.82 442.74 568.24 432.91 567.85 432.51Z" fill="black"/>
</g>
<path id="Vector_58" d="M554.9 385.55C555.239 386.307 555.753 386.972 556.4 387.49C556.817 387.8 557.299 388.008 557.81 388.1C556.93 388.61 555.97 388.99 555.09 389.5C553.706 390.43 552.371 391.432 551.09 392.5C549.78 393.553 548.177 394.175 546.5 394.28C547.088 393.487 547.458 392.552 547.57 391.571C547.682 390.59 547.534 389.596 547.14 388.69C546.78 388.096 546.542 387.437 546.44 386.75C546.44 385.62 547.44 384.75 548.37 384.15C549.12 383.64 549.89 383.15 550.67 382.66C551.28 382.28 552.2 381.48 552.97 381.51C553.74 381.54 553.83 382.22 553.97 382.92C554.168 383.832 554.481 384.716 554.9 385.55V385.55Z" fill="#BE6F72"/>
<path id="Vector_59" opacity="0.1" d="M554.9 385.55C555.239 386.307 555.753 386.972 556.4 387.49C556.817 387.8 557.299 388.008 557.81 388.1C556.93 388.61 555.97 388.99 555.09 389.5C553.706 390.43 552.371 391.432 551.09 392.5C549.78 393.553 548.177 394.175 546.5 394.28C547.088 393.487 547.458 392.552 547.57 391.571C547.682 390.59 547.534 389.596 547.14 388.69C546.78 388.096 546.542 387.437 546.44 386.75C546.44 385.62 547.44 384.75 548.37 384.15C549.12 383.64 549.89 383.15 550.67 382.66C551.28 382.28 552.2 381.48 552.97 381.51C553.74 381.54 553.83 382.22 553.97 382.92C554.168 383.832 554.481 384.716 554.9 385.55V385.55Z" fill="black"/>
<path id="Vector_60" d="M564.11 408.74C569.103 408.74 573.15 404.693 573.15 399.7C573.15 394.707 569.103 390.66 564.11 390.66C559.117 390.66 555.07 394.707 555.07 399.7C555.07 404.693 559.117 408.74 564.11 408.74Z" fill="#BE6F72"/>
<path id="Vector_61" d="M576.88 528.01C576.88 528.8 575.31 530.76 575.31 530.76C572.117 531.152 568.878 530.747 565.88 529.58C565.09 529.19 566.27 526.83 566.27 526.83L566.36 526.64C566.72 525.714 567.223 524.851 567.85 524.08C568.63 523.3 569.1 520.08 569.1 520.08C571.54 516.08 575.87 521.81 575.87 521.81C575.87 521.81 576.42 524.81 576.71 526.63C576.81 527.28 576.88 527.81 576.88 528.01Z" fill="#FF6F61"/>
<path id="Vector_62" opacity="0.1" d="M576.88 528.01C576.88 528.8 575.31 530.76 575.31 530.76C572.117 531.152 568.878 530.747 565.88 529.58C565.09 529.19 566.27 526.83 566.27 526.83L566.36 526.64C569.038 527.884 571.969 528.486 574.92 528.4L576.71 526.61C576.81 527.28 576.88 527.81 576.88 528.01Z" fill="black"/>
<path id="Vector_63" d="M546.03 389.67C550.912 389.67 554.87 385.712 554.87 380.83C554.87 375.948 550.912 371.99 546.03 371.99C541.148 371.99 537.19 375.948 537.19 380.83C537.19 385.712 541.148 389.67 546.03 389.67Z" fill="#BE6F72"/>
<path id="Vector_64" d="M538.9 398.51C536.96 400.36 536.64 403.29 536.44 405.96L536.14 409.87C536.032 410.923 536.008 411.983 536.07 413.04C536.07 413.69 536.23 414.35 536.29 415.04C536.35 415.73 536.37 416.6 536.38 417.39V423.17C536.285 424.363 536.506 425.56 537.02 426.64C537.294 427.163 537.755 427.563 538.31 427.763C538.865 427.963 539.476 427.948 540.02 427.72C540.641 427.241 541.079 426.563 541.26 425.8C542.235 423.455 542.907 420.995 543.26 418.48C543.34 417.61 543.35 416.74 543.43 415.87C543.51 415 543.66 414.09 543.79 413.21C544.35 409.53 544.6 405.81 544.85 402.1C544.92 401 545.91 396.67 544.47 396.19C543.77 395.96 542.32 396.68 541.65 396.92C540.636 397.259 539.7 397.8 538.9 398.51V398.51Z" fill="#BE6F72"/>
<path id="Vector_65" opacity="0.1" d="M538.9 398.51C536.96 400.36 536.64 403.29 536.44 405.96L536.14 409.87C536.032 410.923 536.008 411.983 536.07 413.04C536.07 413.69 536.23 414.35 536.29 415.04C536.35 415.73 536.37 416.6 536.38 417.39V423.17C536.285 424.363 536.506 425.56 537.02 426.64C537.294 427.163 537.755 427.563 538.31 427.763C538.865 427.963 539.476 427.948 540.02 427.72C540.641 427.241 541.079 426.563 541.26 425.8C542.235 423.455 542.907 420.995 543.26 418.48C543.34 417.61 543.35 416.74 543.43 415.87C543.51 415 543.66 414.09 543.79 413.21C544.35 409.53 544.6 405.81 544.85 402.1C544.92 401 545.91 396.67 544.47 396.19C543.77 395.96 542.32 396.68 541.65 396.92C540.636 397.259 539.7 397.8 538.9 398.51V398.51Z" fill="black"/>
<path id="Vector_66" d="M557.23 386.53C557.23 386.53 550.55 391.64 546.62 392.82C546.62 392.82 544.29 395.48 543.89 396.12C543.49 396.76 542.69 403.82 541.89 405.4C541.09 406.98 539.14 410.51 541.89 414.04C541.89 414.04 542.67 417.58 542.28 418.76C541.89 419.94 540.46 424.26 541.76 424.46C543.06 424.66 547 427.4 550.53 426.62C554.06 425.84 567.24 429.62 567.24 429.62C567.24 429.62 569.42 409.37 571 405.79L567.46 404.61C567.46 404.61 557.64 398.72 563.53 389.68C563.52 389.68 558 388.5 557.23 386.53Z" fill="#FF6F61"/>
<path id="Vector_67" d="M532.84 410.2L540.96 415.95C541.063 416.026 541.187 416.066 541.315 416.066C541.443 416.066 541.567 416.026 541.67 415.95L543.87 414.3C543.938 414.242 543.992 414.17 544.029 414.089C544.066 414.007 544.086 413.919 544.086 413.83C544.086 413.741 544.066 413.653 544.029 413.571C543.992 413.49 543.938 413.418 543.87 413.36L537.62 407.81C537.539 407.736 537.439 407.686 537.332 407.665C537.224 407.644 537.113 407.652 537.01 407.69L533 409.13C532.895 409.166 532.801 409.231 532.73 409.317C532.658 409.402 532.612 409.506 532.595 409.616C532.579 409.727 532.593 409.839 532.636 409.942C532.679 410.045 532.75 410.134 532.84 410.2V410.2Z" fill="#3F3D56"/>
<path id="Vector_68" d="M535.57 427.52C534.996 425.528 534.71 423.463 534.72 421.39L534.6 418.62C534.479 417.545 534.578 416.456 534.89 415.42C535.198 414.709 535.66 414.076 536.243 413.566C536.826 413.056 537.515 412.681 538.26 412.47C539.753 412.056 541.313 411.943 542.85 412.14C543.057 412.141 543.261 412.196 543.44 412.3C543.597 412.445 543.708 412.633 543.76 412.84C543.987 413.283 544.121 413.769 544.152 414.266C544.183 414.764 544.111 415.262 543.94 415.73C543.708 416.111 543.394 416.436 543.02 416.68C541.93 417.46 540.66 417.98 539.63 418.83C539.421 418.972 539.26 419.174 539.17 419.41C539.12 419.617 539.12 419.833 539.17 420.04C539.298 420.59 539.472 421.129 539.69 421.65C539.778 421.912 539.934 422.146 540.14 422.33C540.33 422.49 540.58 422.55 540.78 422.7C541.21 423.05 542.11 423.51 542.06 424.06C541.91 426.06 540.71 428.3 540.24 430.28C539.34 434.15 536.15 429.21 535.57 427.52Z" fill="#BE6F72"/>
<g id="Group_4" opacity="0.1">
<path id="Vector_69" opacity="0.1" d="M548.2 426.62H547.98C548.829 426.785 549.701 426.785 550.55 426.62H550.8C549.938 426.494 549.062 426.494 548.2 426.62Z" fill="black"/>
<path id="Vector_70" opacity="0.1" d="M568.83 405.2C567.42 408.37 565.34 425.54 564.97 428.95C566.35 429.31 567.26 429.57 567.26 429.57C567.26 429.57 569.42 409.37 571 405.79L568.83 405.2Z" fill="black"/>
</g>
<path id="Vector_71" d="M564.42 399.98C564.493 400.375 564.646 400.751 564.867 401.086C565.089 401.421 565.375 401.708 565.71 401.93C566.545 402.63 567.311 403.406 568 404.25C568.988 405.64 569.754 407.175 570.27 408.8C571.02 410.835 571.651 412.912 572.16 415.02C567.16 417.34 561.48 417.23 556.16 418.76C553.869 419.364 551.792 420.593 550.16 422.31C549.346 423.173 548.728 424.201 548.346 425.324C547.965 426.448 547.83 427.64 547.95 428.82C547.958 428.958 547.999 429.092 548.07 429.21C548.157 429.308 548.265 429.384 548.387 429.433C548.508 429.482 548.64 429.501 548.77 429.49C550.099 429.488 551.39 429.045 552.44 428.23C553.478 427.419 554.42 426.493 555.25 425.47C555.765 424.799 556.458 424.287 557.25 423.99C560.14 423.11 563.25 423.16 566.25 423.11C570.737 423.022 575.215 422.668 579.66 422.05C579.822 422.069 579.987 422.052 580.141 421.998C580.295 421.945 580.436 421.857 580.551 421.741C580.667 421.626 580.755 421.485 580.808 421.331C580.861 421.177 580.879 421.012 580.86 420.85C581.3 414.95 579.11 409.19 576.86 403.72C575.96 401.527 575.033 399.343 574.08 397.17C573.295 395.046 572.144 393.077 570.68 391.35C570.124 390.722 569.443 390.218 568.68 389.87C567.82 389.56 566.914 389.391 566 389.37C564.545 389.174 563.071 389.147 561.61 389.29C561.377 390.026 561.236 390.789 561.19 391.56C561.27 394.26 562.45 396.79 563.61 399.23C563.76 399.6 564.19 399.62 564.42 399.98Z" fill="#BE6F72"/>
<path id="Vector_72" opacity="0.1" d="M548.41 405.04C547.733 406.198 547.388 407.519 547.41 408.86C547.412 409.39 547.497 409.916 547.66 410.42C547.933 411.127 548.362 411.764 548.914 412.283C549.466 412.802 550.128 413.191 550.85 413.42" stroke="black" stroke-miterlimit="10"/>
<path id="Vector_73" d="M553.5 372.19C553.007 372.188 552.518 372.266 552.05 372.42C550.74 370.42 547.66 369.04 544.05 369.04C539.27 369.04 535.4 371.51 535.4 374.55C535.4 377.59 539.27 380.05 544.05 380.05C545.84 380.069 547.612 379.694 549.24 378.95C549.606 379.708 550.169 380.353 550.869 380.82C551.569 381.286 552.382 381.557 553.222 381.603C554.062 381.649 554.899 381.469 555.646 381.082C556.394 380.696 557.024 380.115 557.471 379.403C557.918 378.69 558.166 377.87 558.189 377.029C558.212 376.188 558.009 375.356 557.602 374.62C557.194 373.884 556.597 373.27 555.872 372.843C555.148 372.415 554.321 372.19 553.48 372.19H553.5Z" fill="#3F3D56"/>
<path id="Vector_74" opacity="0.1" d="M553.89 380.44C553.003 380.44 552.135 380.19 551.385 379.717C550.634 379.245 550.033 378.57 549.65 377.77C548.022 378.514 546.25 378.889 544.46 378.87C539.69 378.87 535.82 376.41 535.82 373.37C535.805 373.187 535.805 373.003 535.82 372.82C535.536 373.353 535.385 373.946 535.38 374.55C535.38 377.55 539.25 380.05 544.03 380.05C545.82 380.069 547.592 379.694 549.22 378.95C549.651 379.843 550.352 380.577 551.224 381.048C552.097 381.519 553.095 381.703 554.078 381.573C555.061 381.444 555.978 381.007 556.698 380.326C557.419 379.645 557.906 378.754 558.09 377.78C557.71 378.572 557.114 379.242 556.371 379.712C555.629 380.183 554.769 380.435 553.89 380.44V380.44Z" fill="black"/>
<path id="Vector_75" opacity="0.1" d="M534.23 372.37C535.554 369.658 537.758 367.475 540.482 366.177C543.206 364.878 546.29 364.541 549.23 365.22C551.287 363.95 553.636 363.228 556.052 363.124C558.468 363.021 560.87 363.538 563.029 364.628C565.188 365.717 567.031 367.342 568.383 369.347C569.735 371.352 570.55 373.67 570.75 376.08C570.75 375.69 570.75 375.3 570.75 374.9C570.745 372.385 570.068 369.917 568.791 367.75C567.514 365.584 565.682 363.797 563.484 362.574C561.286 361.351 558.802 360.737 556.288 360.794C553.773 360.851 551.32 361.578 549.18 362.9C546.24 362.221 543.156 362.558 540.432 363.857C537.708 365.155 535.504 367.338 534.18 370.05C532.531 371.61 531.226 373.498 530.349 375.592C529.473 377.686 529.044 379.94 529.09 382.21C529.09 382.61 529.09 383 529.09 383.39C529.286 379.183 531.133 375.224 534.23 372.37Z" fill="black"/>
<path id="Vector_76" d="M624.39 375.37C627 370.54 624.04 364.61 620.63 360.3C617.22 355.99 613.08 351.51 613.17 346.01C613.29 338.12 621.67 333.46 628.37 329.27C633.337 326.157 637.916 322.465 642.01 318.27C643.73 316.663 645.152 314.763 646.21 312.66C647.59 309.57 647.55 306.06 647.47 302.66C647.177 291.393 646.62 280.14 645.8 268.9" stroke="#3F3D56" stroke-width="4" stroke-miterlimit="10"/>
<path id="Vector_77" d="M658.52 268.3C658.425 266.24 657.812 264.236 656.739 262.475C655.666 260.713 654.167 259.25 652.38 258.22L649.62 263.67L649.7 257.07C648.388 256.678 647.018 256.513 645.65 256.58C643.218 256.693 640.874 257.526 638.915 258.971C636.955 260.417 635.469 262.411 634.643 264.702C633.817 266.992 633.689 269.476 634.275 271.839C634.861 274.202 636.135 276.339 637.935 277.978C639.735 279.618 641.981 280.686 644.389 281.049C646.797 281.412 649.258 281.053 651.461 280.017C653.665 278.981 655.511 277.315 656.768 275.229C658.024 273.143 658.634 270.732 658.52 268.3V268.3Z" fill="#E02F6B"/>
<path id="Vector_78" d="M636.57 351.63C635.279 354.141 633.163 356.133 630.578 357.269C627.993 358.406 625.096 358.62 622.373 357.875C619.649 357.129 617.264 355.47 615.618 353.175C613.973 350.88 613.166 348.089 613.334 345.27C613.502 342.452 614.633 339.776 616.539 337.692C618.445 335.609 621.01 334.244 623.803 333.827C626.596 333.409 629.447 333.965 631.879 335.4C634.311 336.835 636.176 339.063 637.16 341.71L629.47 347.97L637.93 345.97C637.938 347.939 637.472 349.88 636.57 351.63V351.63Z" fill="#E02F6B"/>
<path id="Vector_79" d="M630.49 327.72C627.468 327.865 624.498 326.893 622.148 324.987C619.797 323.082 618.23 320.378 617.747 317.392C617.263 314.405 617.897 311.345 619.526 308.795C621.155 306.246 623.666 304.386 626.58 303.57L626.52 308.64L629.31 303.13C632.572 302.981 635.759 304.132 638.172 306.332C640.586 308.531 642.027 311.598 642.18 314.86C642.257 316.475 642.014 318.089 641.466 319.61C640.919 321.131 640.077 322.529 638.988 323.725C637.899 324.92 636.586 325.889 635.123 326.576C633.659 327.264 632.075 327.656 630.46 327.73L630.49 327.72Z" fill="#E02F6B"/>
<path id="Vector_80" d="M660.37 307.84C658.462 307.937 656.557 307.589 654.807 306.822C653.056 306.056 651.508 304.893 650.285 303.424C649.062 301.956 648.198 300.223 647.761 298.363C647.323 296.503 647.325 294.567 647.766 292.708C648.206 290.848 649.074 289.117 650.299 287.651C651.525 286.185 653.074 285.024 654.826 284.261C656.578 283.498 658.483 283.152 660.391 283.253C662.3 283.353 664.158 283.897 665.82 284.84L663.64 290.84L668.12 286.54C669.314 287.624 670.281 288.932 670.968 290.391C671.654 291.85 672.046 293.43 672.12 295.04C672.18 296.179 672.076 297.321 671.81 298.43C671.183 301.028 669.728 303.351 667.664 305.048C665.6 306.746 663.04 307.726 660.37 307.84V307.84Z" fill="#E02F6B"/>
<path id="Vector_81" opacity="0.1" d="M656.87 271.58C654.03 271.9 651.26 272.78 648.41 272.96C645.56 273.14 642.41 272.45 640.62 270.23C639.784 268.943 639.026 267.608 638.35 266.23C637.57 265.019 636.506 264.016 635.25 263.31C634.452 264.871 633.997 266.584 633.914 268.334C633.832 270.085 634.124 271.833 634.771 273.462C635.419 275.091 636.407 276.562 637.669 277.779C638.931 278.995 640.438 279.927 642.09 280.514C643.742 281.101 645.499 281.328 647.246 281.18C648.992 281.033 650.687 280.514 652.217 279.659C653.747 278.804 655.077 277.632 656.117 276.221C657.157 274.811 657.885 273.194 658.25 271.48C657.79 271.5 657.33 271.53 656.87 271.58Z" fill="black"/>
<path id="Vector_82" opacity="0.1" d="M660.37 307.84C658.248 307.938 656.138 307.485 654.243 306.526C652.347 305.568 650.732 304.135 649.554 302.368C648.376 300.601 647.674 298.56 647.517 296.442C647.361 294.324 647.754 292.201 648.66 290.28C649.638 290.935 650.481 291.774 651.14 292.75C651.871 294.154 652.686 295.514 653.58 296.82C655.49 299.08 658.77 299.82 661.74 299.68C664.71 299.54 667.58 298.68 670.54 298.43C670.95 298.43 671.37 298.36 671.78 298.35C671.169 300.958 669.725 303.295 667.666 305.008C665.607 306.72 663.045 307.715 660.37 307.84V307.84Z" fill="black"/>
<path id="Vector_83" opacity="0.1" d="M630.49 327.72C628.386 327.823 626.291 327.384 624.405 326.445C622.519 325.505 620.906 324.097 619.721 322.356C618.536 320.614 617.817 318.598 617.635 316.499C617.453 314.4 617.813 312.29 618.68 310.37C619.689 311.041 620.57 311.888 621.28 312.87C622.28 314.22 622.83 315.78 623.95 317.02C626.03 319.34 629.52 320.15 632.67 320.08C635.82 320.01 638.67 319.26 641.67 319.03C640.928 321.453 639.455 323.588 637.455 325.143C635.454 326.699 633.021 327.598 630.49 327.72V327.72Z" fill="black"/>
<path id="Vector_84" opacity="0.1" d="M636.57 351.63C635.102 354.377 632.648 356.465 629.702 357.476C626.756 358.486 623.537 358.344 620.692 357.076C617.847 355.809 615.587 353.511 614.368 350.646C613.149 347.78 613.06 344.559 614.12 341.63C615.136 342.293 616.046 343.105 616.82 344.04C618 345.47 618.77 347.04 620.12 348.42C622.64 350.89 626.7 351.9 630.32 352C632.409 351.998 634.496 351.874 636.57 351.63V351.63Z" fill="black"/>
<path id="Vector_85" d="M266 386.28C266.013 384.746 265.666 383.231 264.987 381.855C264.308 380.48 263.316 379.283 262.09 378.36C262.075 375.649 261.102 373.03 259.344 370.966C257.586 368.902 255.155 367.526 252.48 367.08C252.067 365.109 251.142 363.282 249.8 361.781C248.457 360.28 246.743 359.159 244.83 358.53V358.53C244.366 358.385 243.891 358.274 243.41 358.2H243.27H243.02H242.82H242.6H242.33H241.72C239.063 358.261 236.513 359.261 234.522 361.021C232.531 362.782 231.226 365.19 230.84 367.82C227.33 367.01 224.12 368.06 223.53 370.28C223.382 370.87 223.417 371.491 223.63 372.06C224.23 373.78 226.18 375.43 228.79 376.24L229.13 376.34L229.64 376.47H229.75C229.193 377.655 228.906 378.95 228.91 380.26C228.902 381.868 229.337 383.446 230.168 384.822C230.999 386.198 232.194 387.319 233.62 388.06L233.39 388.2C233.065 388.496 232.806 388.857 232.63 389.26C231.999 390.376 231.505 391.565 231.16 392.8C230.91 393.86 230.87 394.96 230.56 396.01C229.98 397.94 228.5 399.57 228.33 401.58C228.25 402.48 228.4 403.58 227.76 404.16C227.603 404.297 227.432 404.417 227.25 404.52C226.807 404.833 226.43 405.231 226.14 405.69C225.948 406.106 225.684 406.486 225.36 406.81C224.78 407.24 223.83 407.2 223.55 407.87C223.27 408.54 224 409.33 223.83 410.06C223.66 410.79 223.04 410.93 222.59 411.34C222.067 411.903 221.698 412.592 221.52 413.34C220.574 413.521 219.599 413.491 218.666 413.252C217.733 413.014 216.864 412.572 216.12 411.96C216.375 412.606 216.563 413.276 216.68 413.96C215.81 413.296 214.823 412.801 213.77 412.5C212.585 411.961 211.529 411.177 210.67 410.2L212.33 409.97L205 398.78L202.83 398.33L204.77 402.06C204.608 402.134 204.464 402.243 204.35 402.38C204.236 402.517 204.154 402.677 204.11 402.85C204.007 403.265 203.983 403.696 204.04 404.12C204.14 405.13 204.307 406.132 204.54 407.12L205.1 409.74C205.15 409.98 205.21 410.23 205.28 410.47C204.549 410.434 203.816 410.515 203.11 410.71C201.656 410.169 200.142 409.81 198.6 409.64C198.27 409.573 197.93 409.573 197.6 409.64C197.226 409.817 196.901 410.081 196.65 410.41C195.387 411.875 194.266 413.455 193.3 415.13C189.3 421.99 184.09 427.98 179.16 434.18C175.76 435.56 172.33 436.87 168.9 438.18L161.52 441C160.081 441.653 158.52 441.994 156.94 442C156.24 442 155.37 441.85 154.94 442.45C154.747 442.762 154.596 443.098 154.49 443.45L153.73 443.53C153.38 442.329 152.776 441.218 151.96 440.27C151.78 440.301 151.61 440.375 151.466 440.487C151.321 440.598 151.206 440.744 151.13 440.91C150.95 441.24 150.84 441.6 150.63 441.91C150.24 442.49 149.55 442.77 149.06 443.26C148.57 443.75 148.26 444.51 147.72 445.01C146.984 445.555 146.119 445.899 145.21 446.01C143.84 446.33 142.518 446.831 141.28 447.5C140.827 447.784 140.34 448.009 139.83 448.17C139.267 448.28 138.69 448.3 138.12 448.23L134.22 447.94C133.87 447.896 133.515 447.913 133.17 447.99C132.778 448.149 132.448 448.429 132.225 448.788C132.002 449.148 131.899 449.568 131.93 449.99C131.98 450.414 132.116 450.823 132.329 451.192C132.542 451.562 132.829 451.884 133.17 452.14C133.845 452.638 134.594 453.026 135.39 453.29C138.765 454.604 142.244 455.634 145.79 456.37V457.16C148.271 458.411 151.011 459.062 153.79 459.06C153.996 459.074 154.202 459.036 154.39 458.95C154.645 458.759 154.823 458.482 154.89 458.17C155.719 455.69 156.243 453.117 156.45 450.51V450.51C156.938 450.477 157.416 450.355 157.86 450.15C159.2 449.78 160.54 450.7 161.93 450.85C163.64 451.04 165.22 450.04 166.84 449.43L167.54 449.2C167.079 449.793 166.533 450.315 165.92 450.75C165.25 451.23 164.5 451.59 163.85 452.09C163.3 452.588 162.711 453.043 162.09 453.45C161.652 453.653 161.201 453.826 160.74 453.97C160.058 454.223 159.41 454.559 158.81 454.97C158.278 455.287 157.829 455.726 157.5 456.25C157.336 456.518 157.24 456.822 157.221 457.136C157.201 457.45 157.26 457.764 157.39 458.05C157.528 458.283 157.715 458.485 157.938 458.64C158.16 458.795 158.413 458.901 158.68 458.95C159.207 459.03 159.743 459.03 160.27 458.95C162.39 458.79 164.5 458.6 166.61 458.41C167.502 458.353 168.388 458.226 169.26 458.03C169.72 457.92 170.18 457.77 170.64 457.64C171.429 457.441 172.237 457.32 173.05 457.28C173.286 457.262 173.523 457.285 173.75 457.35C174.24 457.51 174.59 458.01 175.09 458.11C175.429 458.153 175.773 458.108 176.09 457.98C177.631 457.648 179.203 457.48 180.78 457.48C181.47 457.48 182.28 457.31 182.6 456.67C182.92 456.03 182.34 455 182.08 454.15C181.947 453.606 181.873 453.05 181.86 452.49C181.739 451.113 181.345 449.773 180.7 448.55C180.352 447.98 180.061 447.377 179.83 446.75C182.854 445.601 185.747 444.133 188.46 442.37C189.946 441.294 191.612 440.491 193.38 440C195.468 439.751 197.585 439.998 199.56 440.72C204.368 442.113 209.098 443.762 213.73 445.66C215.94 446.57 218.14 447.53 220.42 448.22C221.085 449.112 221.889 449.892 222.8 450.53C224.375 451.416 226.144 451.9 227.95 451.94C230.36 452.16 232.78 452.25 235.2 452.21C237.053 452.29 238.899 451.948 240.6 451.21C241.006 451.007 241.385 450.755 241.73 450.46C242.383 450.515 243.04 450.427 243.655 450.2C244.271 449.974 244.829 449.616 245.29 449.15C246.601 448.027 247.545 446.536 248 444.87C248.59 442.59 248.14 439.87 249.54 438.05C249.91 437.55 250.4 437.15 250.77 436.65C251.218 435.965 251.442 435.158 251.41 434.34C251.426 434.308 251.447 434.278 251.47 434.25C251.777 433.515 251.979 432.741 252.07 431.95C252.242 431.328 252.459 430.72 252.72 430.13C253.431 428.366 254.052 426.567 254.58 424.74C254.941 423.525 255.228 422.289 255.44 421.04C255.59 420.04 255.68 419.04 255.76 418.04C255.866 416.464 256.172 414.908 256.67 413.41C257.922 409.843 258.63 406.108 258.77 402.33V402.11C260.612 401.898 262.309 401.005 263.527 399.607C264.744 398.208 265.395 396.404 265.35 394.55C265.35 393.437 265.115 392.336 264.66 391.32C265.545 389.788 266.007 388.049 266 386.28ZM230.22 429.75C230.33 430.14 230.46 430.52 230.59 430.9C230 430.33 229.43 429.74 228.84 429.16C229.07 429.24 229.31 429.31 229.53 429.4C229.761 429.494 229.982 429.612 230.19 429.75H230.22ZM227.39 427.83C223.93 424.83 219.93 422.5 216.39 419.59C218.32 420.54 220.2 421.65 222.06 422.71C224.267 423.97 226.503 425.18 228.77 426.34C228.398 426.921 227.919 427.426 227.36 427.83H227.39ZM228.86 420.27L229.03 420.1C229.03 420.53 229.03 420.92 229.03 421.29L228.1 420.97C228.357 420.752 228.601 420.518 228.83 420.27H228.86ZM198.43 428.37C199.849 426.763 201.084 425.002 202.11 423.12C203.48 425.51 205.71 427.24 207.6 429.25C204.55 428.86 201.49 428.53 198.43 428.37Z" fill="url(#paint1_linear_1:170)"/>
<path id="Vector_86" d="M203.35 399.25L205.53 399.69L212.96 410.68L209.69 411.12L203.35 399.25Z" fill="#2F2E41"/>
<path id="Vector_87" d="M150.49 443.83C151.081 445.769 151.81 447.664 152.67 449.5C155.132 448.98 157.555 448.288 159.92 447.43C159.454 446.736 158.95 446.069 158.41 445.43C157.823 444.792 157.129 444.26 156.36 443.86C155.54 443.675 154.69 443.675 153.87 443.86C152.75 443.83 151.62 443.85 150.49 443.83Z" fill="#FBBEBE"/>
<path id="Vector_88" d="M156.37 446.76C155.779 446.495 155.251 446.106 154.823 445.62C154.395 445.133 154.077 444.56 153.89 443.94C153.509 442.694 152.864 441.545 152 440.57C151.818 440.595 151.645 440.666 151.498 440.776C151.351 440.886 151.235 441.032 151.16 441.2C150.98 441.52 150.87 441.88 150.67 442.2C150.27 442.77 149.57 443.05 149.07 443.53C148.57 444.01 148.27 444.76 147.73 445.25C146.988 445.797 146.116 446.142 145.2 446.25C143.808 446.564 142.464 447.058 141.2 447.72C140.737 447.997 140.244 448.218 139.73 448.38C139.16 448.465 138.58 448.465 138.01 448.38L134.07 448.1C133.739 448.046 133.401 448.046 133.07 448.1C132.668 448.245 132.326 448.521 132.099 448.884C131.873 449.247 131.774 449.675 131.82 450.1C131.867 450.522 132.002 450.929 132.218 451.294C132.433 451.66 132.724 451.975 133.07 452.22C133.754 452.711 134.51 453.096 135.31 453.36C138.74 454.652 142.273 455.655 145.87 456.36V457.14C148.375 458.37 151.129 459.009 153.92 459.01C154.125 459.022 154.33 458.988 154.52 458.91C154.775 458.719 154.953 458.442 155.02 458.13C155.968 455.368 156.523 452.486 156.67 449.57C156.734 448.829 156.677 448.082 156.5 447.36C156.28 446.65 157.02 446.95 156.34 446.67" fill="#2F2E41"/>
<path id="Vector_89" d="M231.93 431.91C220.25 432.61 208.71 429.19 197.01 428.83C195.558 428.734 194.099 428.825 192.67 429.1C191.182 429.504 189.74 430.063 188.37 430.77C182.1 433.69 175.61 436.11 169.13 438.52L161.68 441.29C160.231 441.945 158.66 442.285 157.07 442.29C156.36 442.29 155.49 442.14 155.07 442.73C153.86 444.53 154.43 447.16 155.23 449.18C155.49 449.83 155.93 450.54 156.63 450.61C157.121 450.577 157.602 450.455 158.05 450.25C159.4 449.89 160.75 450.8 162.15 450.95C163.87 451.13 165.47 450.15 167.1 449.55C169.8 448.55 172.74 448.55 175.58 448.11C180.33 447.32 184.74 445.11 188.86 442.6C190.358 441.532 192.034 440.74 193.81 440.26C195.914 440.012 198.046 440.255 200.04 440.97C204.886 442.337 209.656 443.96 214.33 445.83C216.76 446.888 219.251 447.799 221.79 448.56C227.332 450.01 233.191 449.66 238.52 447.56C240.39 446.82 242.42 445.56 242.52 443.5C242.59 442.35 241.69 441.34 241.1 440.35C240.72 439.72 240.33 439.09 239.92 438.48C237.92 435.58 235.48 431.7 231.93 431.91Z" fill="#2F2E41"/>
<path id="Vector_90" opacity="0.1" d="M231.93 431.91C220.25 432.61 208.71 429.19 197.01 428.83C195.558 428.734 194.099 428.825 192.67 429.1C191.182 429.504 189.74 430.063 188.37 430.77C182.1 433.69 175.61 436.11 169.13 438.52L161.68 441.29C160.231 441.945 158.66 442.285 157.07 442.29C156.36 442.29 155.49 442.14 155.07 442.73C153.86 444.53 154.43 447.16 155.23 449.18C155.49 449.83 155.93 450.54 156.63 450.61C157.121 450.577 157.602 450.455 158.05 450.25C159.4 449.89 160.75 450.8 162.15 450.95C163.87 451.13 165.47 450.15 167.1 449.55C169.8 448.55 172.74 448.55 175.58 448.11C180.33 447.32 184.74 445.11 188.86 442.6C190.358 441.532 192.034 440.74 193.81 440.26C195.914 440.012 198.046 440.255 200.04 440.97C204.886 442.337 209.656 443.96 214.33 445.83C216.76 446.888 219.251 447.799 221.79 448.56C227.332 450.01 233.191 449.66 238.52 447.56C240.39 446.82 242.42 445.56 242.52 443.5C242.59 442.35 241.69 441.34 241.1 440.35C240.72 439.72 240.33 439.09 239.92 438.48C237.92 435.58 235.48 431.7 231.93 431.91Z" fill="black"/>
<path id="Vector_91" d="M172.92 444.37C174.747 444.99 176.59 445.563 178.45 446.09C179.45 444.38 181.45 443.19 181.88 441.23C181.905 441.145 181.905 441.055 181.88 440.97C181.831 440.887 181.758 440.821 181.67 440.78C180.333 440.046 178.852 439.612 177.33 439.51C176.13 439.44 175.58 440.69 175.04 441.57C174.83 441.96 173.41 444.56 172.92 444.37Z" fill="#FBBEBE"/>
<path id="Vector_92" d="M175.48 443.15C174.933 443.058 174.412 442.852 173.949 442.548C173.486 442.243 173.091 441.845 172.79 441.38C172.54 440.93 172.26 440.32 171.74 440.38C171.22 440.44 171.05 440.98 170.94 441.45C170.594 443.222 170.088 444.959 169.43 446.64C168.77 448.33 167.651 449.802 166.2 450.89C165.52 451.36 164.77 451.71 164.1 452.21C163.545 452.701 162.954 453.149 162.33 453.55C161.889 453.748 161.434 453.915 160.97 454.05C160.287 454.307 159.636 454.643 159.03 455.05C158.491 455.36 158.034 455.795 157.7 456.32C157.535 456.582 157.439 456.882 157.421 457.192C157.404 457.502 157.465 457.811 157.6 458.09C157.74 458.32 157.927 458.518 158.15 458.669C158.372 458.821 158.625 458.924 158.89 458.97C159.424 459.05 159.966 459.05 160.5 458.97C162.63 458.82 164.76 458.63 166.89 458.44C167.788 458.382 168.68 458.258 169.56 458.07L170.95 457.69C171.744 457.48 172.559 457.359 173.38 457.33C173.619 457.308 173.86 457.332 174.09 457.4C174.58 457.56 174.93 458.05 175.44 458.15C175.779 458.183 176.121 458.138 176.44 458.02C177.994 457.687 179.58 457.523 181.17 457.53C181.87 457.53 182.69 457.35 183.01 456.73C183.41 455.95 182.75 455.08 182.48 454.24C182.351 453.706 182.277 453.159 182.26 452.61C182.141 451.25 181.742 449.929 181.09 448.73C180.55 447.73 179.81 446.63 180.19 445.57C180.379 445.233 180.501 444.863 180.55 444.48C180.4 442.76 176.46 443.37 175.48 443.15Z" fill="#2F2E41"/>
<path id="Vector_93" d="M214.42 413.17C212.347 412.262 210.686 410.615 209.76 408.55C209.57 408.11 209.41 407.64 209.22 407.2C208.61 405.71 207.658 404.384 206.44 403.33C206.312 403.194 206.157 403.085 205.985 403.011C205.813 402.937 205.627 402.9 205.44 402.9C205.254 402.956 205.087 403.061 204.955 403.203C204.823 403.345 204.732 403.52 204.69 403.71C204.578 404.117 204.551 404.542 204.61 404.96C204.712 405.943 204.879 406.919 205.11 407.88L205.68 410.46C205.756 410.855 205.873 411.24 206.03 411.61C206.274 412.042 206.596 412.426 206.98 412.74C207.5 413.22 208.03 413.68 208.56 414.14C208.866 414.407 209.202 414.638 209.56 414.83C210.119 415.097 210.716 415.272 211.33 415.35C213.716 415.661 215.993 416.538 217.97 417.91C217.97 417.91 217.97 416.18 217.97 415.99C217.945 415.487 217.771 415.004 217.47 414.6C216.554 413.933 215.519 413.447 214.42 413.17V413.17Z" fill="#FBBEBE"/>
<path id="Vector_94" opacity="0.1" d="M214.42 413.17C212.347 412.262 210.686 410.615 209.76 408.55C209.57 408.11 209.41 407.64 209.22 407.2C208.61 405.71 207.658 404.384 206.44 403.33C206.312 403.194 206.157 403.085 205.985 403.011C205.813 402.937 205.627 402.9 205.44 402.9C205.254 402.956 205.087 403.061 204.955 403.203C204.823 403.345 204.732 403.52 204.69 403.71C204.578 404.117 204.551 404.542 204.61 404.96C204.712 405.943 204.879 406.919 205.11 407.88L205.68 410.46C205.756 410.855 205.873 411.24 206.03 411.61C206.274 412.042 206.596 412.426 206.98 412.74C207.5 413.22 208.03 413.68 208.56 414.14C208.866 414.407 209.202 414.638 209.56 414.83C210.119 415.097 210.716 415.272 211.33 415.35C213.716 415.661 215.993 416.538 217.97 417.91C217.97 417.91 217.97 416.18 217.97 415.99C217.945 415.487 217.771 415.004 217.47 414.6C216.554 413.933 215.519 413.447 214.42 413.17V413.17Z" fill="black"/>
<path id="Vector_95" d="M238.2 393.43C239.769 393.43 241.04 392.15 241.04 390.57C241.04 388.99 239.769 387.71 238.2 387.71C236.632 387.71 235.36 388.99 235.36 390.57C235.36 392.15 236.632 393.43 238.2 393.43Z" fill="#2F2E41"/>
<path id="Vector_96" d="M236.44 388.85C235.68 388.668 234.879 388.782 234.2 389.17C233.872 389.462 233.61 389.82 233.43 390.22C232.794 391.314 232.297 392.483 231.95 393.7C231.7 394.7 231.66 395.83 231.34 396.86C230.76 398.76 229.27 400.37 229.1 402.35C229.02 403.24 229.17 404.28 228.52 404.88C228.361 405.018 228.19 405.141 228.01 405.25C227.56 405.55 227.178 405.942 226.89 406.4C226.694 406.808 226.427 407.177 226.1 407.49C225.52 407.92 224.56 407.88 224.28 408.49C224 409.1 224.73 409.93 224.56 410.65C224.39 411.37 223.76 411.51 223.31 411.91C222.78 412.47 222.407 413.16 222.23 413.91C221.28 414.093 220.301 414.067 219.361 413.834C218.422 413.601 217.545 413.166 216.79 412.56C217.45 414.564 217.738 416.672 217.64 418.78C217.69 419.117 217.671 419.461 217.585 419.791C217.499 420.121 217.348 420.43 217.14 420.7C219.396 420.868 221.63 421.256 223.81 421.86C224.754 422.175 225.776 422.175 226.72 421.86C227.226 421.589 227.679 421.23 228.06 420.8C229.26 419.58 230.52 418.25 230.81 416.56C230.882 415.605 230.898 414.647 230.86 413.69C230.974 412.503 231.219 411.333 231.59 410.2C232.223 407.849 232.648 405.446 232.86 403.02C232.99 401.52 234.29 400.32 234.97 399.02C236.25 396.49 237.57 393.86 237.66 391.02C237.7 390.1 237.38 388.95 236.44 388.85Z" fill="#2F2E41"/>
<path id="Vector_97" opacity="0.1" d="M236.44 388.85C235.68 388.668 234.879 388.782 234.2 389.17C233.872 389.462 233.61 389.82 233.43 390.22C232.794 391.314 232.297 392.483 231.95 393.7C231.7 394.7 231.66 395.83 231.34 396.86C230.76 398.76 229.27 400.37 229.1 402.35C229.02 403.24 229.17 404.28 228.52 404.88C228.361 405.018 228.19 405.141 228.01 405.25C227.56 405.55 227.178 405.942 226.89 406.4C226.694 406.808 226.427 407.177 226.1 407.49C225.52 407.92 224.56 407.88 224.28 408.49C224 409.1 224.73 409.93 224.56 410.65C224.39 411.37 223.76 411.51 223.31 411.91C222.78 412.47 222.407 413.16 222.23 413.91C221.28 414.093 220.301 414.067 219.361 413.834C218.422 413.601 217.545 413.166 216.79 412.56C217.45 414.564 217.738 416.672 217.64 418.78C217.69 419.117 217.671 419.461 217.585 419.791C217.499 420.121 217.348 420.43 217.14 420.7C219.396 420.868 221.63 421.256 223.81 421.86C224.754 422.175 225.776 422.175 226.72 421.86C227.226 421.589 227.679 421.23 228.06 420.8C229.26 419.58 230.52 418.25 230.81 416.56C230.882 415.605 230.898 414.647 230.86 413.69C230.974 412.503 231.219 411.333 231.59 410.2C232.223 407.849 232.648 405.446 232.86 403.02C232.99 401.52 234.29 400.32 234.97 399.02C236.25 396.49 237.57 393.86 237.66 391.02C237.7 390.1 237.38 388.95 236.44 388.85Z" fill="black"/>
<path id="Vector_98" d="M233.78 434.37C231.35 433.21 229.57 431.06 227.6 429.21C223.85 425.68 219.26 423.21 215.31 419.88C212.69 417.69 210.31 415.14 207.48 413.3C204.945 411.693 202.074 410.69 199.09 410.37C198.761 410.294 198.419 410.294 198.09 410.37C197.712 410.531 197.384 410.79 197.14 411.12C195.865 412.559 194.73 414.116 193.75 415.77C188.75 424.27 181.64 431.41 175.75 439.31C175.615 439.474 175.516 439.665 175.46 439.87C175.435 440.176 175.513 440.482 175.68 440.74L176.88 443.08C177.55 444.4 178.63 445.93 180.07 445.67C180.718 445.482 181.299 445.111 181.74 444.6L187.12 439.45L192.76 434.06C196.06 430.91 199.42 427.68 201.58 423.64C203.26 426.56 206.25 428.47 208.29 431.14C209.07 432.14 209.71 433.27 210.41 434.35C211.52 436.07 212.79 437.69 214.05 439.35L220.52 447.6C221.34 448.765 222.355 449.78 223.52 450.6C225.115 451.468 226.894 451.945 228.71 451.99C231.14 452.207 233.58 452.293 236.02 452.25C237.888 452.325 239.75 451.984 241.47 451.25C242.327 450.873 243.06 450.26 243.582 449.483C244.104 448.706 244.395 447.796 244.42 446.86C244.32 445.891 244.002 444.958 243.49 444.13C241.15 439.96 238.13 436.44 233.78 434.37Z" fill="#2F2E41"/>
<path id="Vector_99" d="M239.95 394.75C241.16 394.75 242.14 393.765 242.14 392.55C242.14 391.335 241.16 390.35 239.95 390.35C238.741 390.35 237.76 391.335 237.76 392.55C237.76 393.765 238.741 394.75 239.95 394.75Z" fill="#E8E8F0"/>
<path id="Vector_100" d="M239.47 390.9C239.959 391.882 240.045 393.016 239.71 394.06C239.365 395.086 238.891 396.063 238.3 396.97C237.792 397.904 237.178 398.776 236.47 399.57C239.85 399.73 243.12 398.41 246.09 396.81C248.49 395.52 250.88 393.93 252.16 391.52C251.778 391.611 251.381 391.621 250.995 391.548C250.609 391.476 250.243 391.323 249.92 391.1C249.275 390.656 248.699 390.121 248.21 389.51L246.52 387.61C246.137 387.192 245.801 386.732 245.52 386.24C245.149 385.566 244.992 384.795 245.07 384.03C244.396 384.733 243.645 385.357 242.83 385.89C241.62 386.68 240.29 387.25 239.07 388.03C238.65 388.31 237.69 388.75 237.94 389.31C238.19 389.87 239.13 390.3 239.47 390.9Z" fill="#FBBEBE"/>
<path id="Vector_101" opacity="0.1" d="M239.47 390.9C239.959 391.882 240.045 393.016 239.71 394.06C239.365 395.086 238.891 396.063 238.3 396.97C237.792 397.904 237.178 398.776 236.47 399.57C239.85 399.73 243.12 398.41 246.09 396.81C248.49 395.52 250.88 393.93 252.16 391.52C251.778 391.611 251.381 391.621 250.995 391.548C250.609 391.476 250.243 391.323 249.92 391.1C249.275 390.656 248.699 390.121 248.21 389.51L246.52 387.61C246.137 387.192 245.801 386.732 245.52 386.24C245.149 385.566 244.992 384.795 245.07 384.03C244.396 384.733 243.645 385.357 242.83 385.89C241.62 386.68 240.29 387.25 239.07 388.03C238.65 388.31 237.69 388.75 237.94 389.31C238.19 389.87 239.13 390.3 239.47 390.9Z" fill="black"/>
<path id="Vector_102" d="M239.51 391.23C239.168 391.712 238.984 392.289 238.984 392.88C238.984 393.471 239.168 394.048 239.51 394.53C239.61 394.65 239.97 395.4 240.12 395.41C240.194 395.404 240.265 395.383 240.33 395.349C240.396 395.314 240.453 395.267 240.5 395.21C241.269 394.408 241.984 393.556 242.64 392.66C243.31 391.766 244.273 391.136 245.36 390.88C246.707 390.829 248.031 391.242 249.11 392.05C249.612 392.279 250.053 392.621 250.4 393.05C250.641 393.491 250.785 393.979 250.82 394.48C251.147 397.498 251.274 400.535 251.2 403.57C251.257 405.762 251.114 407.954 250.77 410.12C250.55 411.23 250.23 412.32 250.08 413.45C249.963 414.445 249.916 415.448 249.94 416.45V420.63C249.913 421.397 249.967 422.164 250.1 422.92C250.3 423.83 250.73 424.68 251.02 425.57C251.319 426.592 251.523 427.64 251.63 428.7L252.2 433.02C252.38 434.38 252.52 435.87 251.69 437.02C251.32 437.51 250.83 437.91 250.45 438.4C249.04 440.24 249.45 442.87 248.9 445.12C248.437 446.767 247.481 448.233 246.16 449.32C245.689 449.786 245.122 450.143 244.498 450.366C243.874 450.589 243.209 450.672 242.55 450.61C240.79 450.28 239.74 448.45 239.26 446.72C238.78 444.99 238.61 443.11 237.57 441.65C236.616 440.545 235.487 439.603 234.23 438.86C232.958 438.106 232.023 436.893 231.62 435.47C231.51 434.84 231.62 434.19 231.51 433.55C231.416 432.745 231.108 431.979 230.617 431.334C230.126 430.688 229.471 430.186 228.72 429.88C227.82 429.53 226.72 429.4 226.2 428.58C227.487 427.774 228.426 426.514 228.83 425.05C229.228 423.596 229.443 422.097 229.47 420.59L229.77 415.59C229.91 413.34 229.97 411.12 230.96 409.1C231.4 408.2 231.96 407.35 232.41 406.46C233.02 405.209 233.538 403.916 233.96 402.59C234.68 400.53 235.4 398.47 236.04 396.39C236.29 395.38 236.673 394.408 237.18 393.5C237.72 392.56 238.5 391.43 239.51 391.23Z" fill="#E8E8F0"/>
<path id="Vector_103" d="M228.36 423.87H229.69L229.97 421.87C230.006 421.469 230.101 421.074 230.25 420.7C230.47 420.303 230.728 419.928 231.02 419.58C232.32 417.73 232.23 415.28 232.55 413.03C233.13 410.057 234.112 407.177 235.47 404.47L238.05 398.72C238.285 398.25 238.472 397.757 238.61 397.25C238.718 396.69 238.772 396.121 238.77 395.55C238.77 394.66 239.05 391.42 239.08 390.55C239.08 390.22 238.35 390.4 238.2 390.11C237.88 389.47 237.44 391.2 236.83 391.58C236.257 392.017 235.84 392.627 235.64 393.32C235.08 394.76 234.74 396.32 234.22 397.75C233.768 399.243 232.938 400.593 231.81 401.67C231.28 402.13 230.67 402.5 230.17 403C228.57 404.58 228.41 407.09 228.36 409.35C228.32 410.73 228.06 423.87 228.36 423.87Z" fill="#2F2E41"/>
<path id="Vector_104" d="M247.5 388.84C246.882 389.163 246.346 389.625 245.935 390.188C245.524 390.752 245.249 391.403 245.13 392.09C244.902 393.469 244.498 394.813 243.93 396.09C242.31 398.91 238.18 399.73 237.03 402.78C236.741 403.806 236.586 404.864 236.57 405.93C236.37 408.12 235.65 410.23 235.43 412.41C235.32 414.107 235.36 415.81 235.55 417.5L237 434.72C237.278 437.253 237.132 439.815 236.57 442.3C238.056 442.512 239.572 442.261 240.91 441.58C242.26 440.96 243.5 440.11 244.81 439.39C247.05 438.15 249.53 437.28 251.5 435.63C251.853 435.349 252.157 435.011 252.4 434.63C252.701 433.907 252.903 433.147 253 432.37C253.17 431.761 253.388 431.166 253.65 430.59C254.372 428.852 254.999 427.076 255.53 425.27C255.891 424.075 256.178 422.86 256.39 421.63C256.55 420.63 256.64 419.63 256.72 418.63C256.824 417.079 257.134 415.549 257.64 414.08C258.895 410.569 259.606 406.886 259.75 403.16C259.789 402.624 259.752 402.085 259.64 401.56C259.42 400.917 259.125 400.303 258.76 399.73C258.16 398.6 257.76 397.36 257.24 396.21C255.822 393.677 253.79 391.542 251.33 390C250.17 389.21 248.81 388.37 247.5 388.84Z" fill="#2F2E41"/>
<path id="Vector_105" d="M217.29 416.94C216.264 416.401 215.334 415.695 214.54 414.85C214.18 414.43 213.88 413.96 213.54 413.54C212.613 412.542 211.407 411.846 210.08 411.54C208.767 411.251 207.424 411.12 206.08 411.15C205.178 411.089 204.272 411.198 203.41 411.47C202.98 411.614 202.593 411.863 202.284 412.195C201.974 412.527 201.753 412.931 201.64 413.37C201.604 413.914 201.709 414.457 201.946 414.948C202.182 415.439 202.542 415.86 202.99 416.17C203.771 416.811 204.693 417.256 205.68 417.47C206.484 417.613 207.295 417.71 208.11 417.76C212.89 418.26 217.16 420.86 221.35 423.23C225.03 425.323 228.783 427.27 232.61 429.07C232.758 427.926 232.822 426.773 232.8 425.62C232.8 424.76 232.73 423.44 231.92 422.93C230.768 422.448 229.568 422.089 228.34 421.86C225.872 421.054 223.463 420.078 221.13 418.94C219.81 418.37 218.54 417.67 217.29 416.94Z" fill="#FBBEBE"/>
<path id="Vector_106" d="M238.2 389.92C242.905 389.92 246.72 386.083 246.72 381.35C246.72 376.617 242.905 372.78 238.2 372.78C233.495 372.78 229.68 376.617 229.68 381.35C229.68 386.083 233.495 389.92 238.2 389.92Z" fill="#FBBEBE"/>
<path id="Vector_107" d="M249.93 398.55C249.25 399.505 248.695 400.543 248.28 401.64C247.28 403.8 245.58 405.64 244.75 407.93C243.92 410.22 243.91 413.16 242.2 415.03C241.858 415.316 241.599 415.689 241.45 416.11C241.443 416.372 241.416 416.632 241.37 416.89C241.12 417.57 240.01 417.6 239.8 418.3C239.74 418.5 239.8 418.72 239.7 418.92C239.53 419.37 238.93 419.44 238.54 419.71C237.71 420.27 237.88 421.57 237.29 422.38C237.033 422.682 236.7 422.91 236.326 423.042C235.952 423.173 235.55 423.204 235.16 423.13C234.384 422.972 233.638 422.692 232.95 422.3C232.703 422.165 232.431 422.08 232.15 422.05C231.818 422.062 231.497 422.173 231.23 422.37C230.476 422.926 229.871 423.659 229.47 424.506C229.068 425.352 228.883 426.284 228.93 427.22C229.045 429.094 229.492 430.933 230.25 432.65C230.334 432.947 230.481 433.224 230.68 433.46C230.978 433.694 231.338 433.834 231.716 433.862C232.093 433.891 232.471 433.806 232.8 433.62C233.452 433.232 234.147 432.92 234.87 432.69C236.19 432.45 237.48 433.36 238.82 433.28C239.796 433.136 240.715 432.732 241.48 432.11C242.826 431.307 244.034 430.294 245.06 429.11C245.64 428.34 246.06 427.47 246.58 426.65C247.242 425.653 247.959 424.695 248.73 423.78L253.65 417.78C254.139 417.21 254.58 416.602 254.97 415.96C255.407 415.085 255.743 414.162 255.97 413.21C256.496 411.625 256.832 409.984 256.97 408.32C257 406.944 256.88 405.569 256.61 404.22C256.461 402.876 256.124 401.56 255.61 400.31C254.54 398.05 251.94 396.21 249.93 398.55Z" fill="#2F2E41"/>
<path id="Vector_108" d="M267.05 387.37C267.057 385.851 266.704 384.352 266.019 382.996C265.334 381.64 264.337 380.466 263.11 379.57C263.07 376.871 262.074 374.274 260.3 372.24C258.526 370.206 256.088 368.867 253.42 368.46C252.907 365.901 251.507 363.606 249.466 361.979C247.425 360.352 244.875 359.499 242.267 359.57C239.658 359.64 237.158 360.63 235.208 362.365C233.258 364.099 231.984 366.467 231.61 369.05C228.07 368.25 224.83 369.29 224.24 371.47C223.65 373.65 226.15 376.47 229.88 377.47C231.057 377.8 232.282 377.921 233.5 377.83C234.368 379.11 235.495 380.193 236.807 381.011C238.12 381.83 239.589 382.364 241.12 382.58C241.574 384.642 242.592 386.536 244.062 388.051C245.531 389.567 247.393 390.643 249.44 391.16C250.01 392.527 250.89 393.742 252.01 394.71C252.01 394.98 252.01 395.26 252.01 395.54C252.01 396.487 252.197 397.424 252.559 398.299C252.921 399.174 253.452 399.969 254.122 400.638C254.791 401.308 255.586 401.839 256.461 402.201C257.336 402.564 258.273 402.75 259.22 402.75C260.167 402.75 261.104 402.564 261.979 402.201C262.854 401.839 263.649 401.308 264.318 400.638C264.988 399.969 265.519 399.174 265.881 398.299C266.244 397.424 266.43 396.487 266.43 395.54C266.431 394.44 266.195 393.352 265.74 392.35C266.62 390.839 267.073 389.118 267.05 387.37V387.37Z" fill="#F86D70"/>
<path id="Vector_109" opacity="0.1" d="M226.64 371.93C227.23 369.75 230.47 368.71 234.01 369.51C234.43 366.886 235.765 364.495 237.778 362.76C239.791 361.025 242.353 360.058 245.01 360.03H245.74C244.722 359.72 243.664 359.562 242.6 359.56C239.943 359.588 237.381 360.555 235.368 362.29C233.355 364.025 232.02 366.416 231.6 369.04C228.06 368.24 224.82 369.28 224.23 371.46C223.64 373.64 226.14 376.46 229.87 377.46C230.569 377.654 231.286 377.778 232.01 377.83C228.44 376.76 226.05 374.16 226.64 371.93Z" fill="black"/>
<path id="Vector_110" opacity="0.1" d="M254.37 395.96C254.355 395.687 254.355 395.413 254.37 395.14C253.244 394.177 252.363 392.96 251.8 391.59C249.751 391.075 247.886 389.999 246.416 388.481C244.946 386.963 243.929 385.065 243.48 383C241.947 382.788 240.476 382.257 239.162 381.44C237.847 380.624 236.719 379.54 235.85 378.26C235.14 378.319 234.426 378.299 233.72 378.2C234.596 379.378 235.696 380.37 236.958 381.12C238.219 381.87 239.617 382.363 241.07 382.57C241.524 384.631 242.542 386.526 244.012 388.041C245.481 389.557 247.343 390.633 249.39 391.15C249.96 392.517 250.84 393.732 251.96 394.7C251.96 394.97 251.96 395.25 251.96 395.53C251.928 397.468 252.664 399.341 254.007 400.738C255.35 402.136 257.192 402.945 259.13 402.99C257.716 402.441 256.503 401.474 255.652 400.218C254.802 398.962 254.355 397.477 254.37 395.96V395.96Z" fill="black"/>
<path id="Vector_111" d="M242.107 384.496C242.683 384.058 242.676 383.08 242.092 382.31C241.507 381.54 240.566 381.271 239.99 381.709C239.414 382.146 239.421 383.125 240.006 383.895C240.59 384.664 241.531 384.934 242.107 384.496Z" fill="#FBBEBE"/>
</g>
<defs>
<linearGradient id="paint0_linear_1:170" x1="555.07" y1="530.95" x2="555.07" y2="358.83" gradientUnits="userSpaceOnUse">
<stop stop-color="#808080" stop-opacity="0.25"/>
<stop offset="0.54" stop-color="#808080" stop-opacity="0.12"/>
<stop offset="1" stop-color="#808080" stop-opacity="0.1"/>
</linearGradient>
<linearGradient id="paint1_linear_1:170" x1="62197" y1="66996.2" x2="62197" y2="56810.1" gradientUnits="userSpaceOnUse">
<stop stop-color="#808080" stop-opacity="0.25"/>
<stop offset="0.54" stop-color="#808080" stop-opacity="0.12"/>
<stop offset="1" stop-color="#808080" stop-opacity="0.1"/>
</linearGradient>
</defs>
</svg>
